<?xml version="1.0" encoding="utf-8" standalone="no"?>
<!DOCTYPE svg PUBLIC "-//W3C//DTD SVG 1.1//EN"
  "http://www.w3.org/Graphics/SVG/1.1/DTD/svg11.dtd">
<!-- Created with matplotlib (https://matplotlib.org/) -->
<svg height="576pt" version="1.1" viewBox="0 0 1800 576" width="1800pt" xmlns="http://www.w3.org/2000/svg" xmlns:xlink="http://www.w3.org/1999/xlink">
 <metadata>
  <rdf:RDF xmlns:cc="http://creativecommons.org/ns#" xmlns:dc="http://purl.org/dc/elements/1.1/" xmlns:rdf="http://www.w3.org/1999/02/22-rdf-syntax-ns#">
   <cc:Work>
    <dc:type rdf:resource="http://purl.org/dc/dcmitype/StillImage"/>
    <dc:date>2022-10-05T11:42:24.593899</dc:date>
    <dc:format>image/svg+xml</dc:format>
    <dc:creator>
     <cc:Agent>
      <dc:title>Matplotlib v3.3.4, https://matplotlib.org/</dc:title>
     </cc:Agent>
    </dc:creator>
   </cc:Work>
  </rdf:RDF>
 </metadata>
 <defs>
  <style type="text/css">*{stroke-linecap:butt;stroke-linejoin:round;}</style>
 </defs>
 <g id="figure_1">
  <g id="patch_1">
   <path d="M 0 576 
L 1800 576 
L 1800 0 
L 0 0 
z
" style="fill:#ffffff;"/>
  </g>
  <g id="axes_1">
   <g id="patch_2">
    <path d="M 225 512.64 
L 1620 512.64 
L 1620 69.12 
L 225 69.12 
z
" style="fill:#ffffff;"/>
   </g>
   <g id="matplotlib.axis_1">
    <g id="xtick_1">
     <g id="line2d_1">
      <defs>
       <path d="M 0 0 
L 0 3.5 
" id="m0872f1f1f4" style="stroke:#000000;stroke-width:0.8;"/>
      </defs>
      <g>
       <use style="stroke:#000000;stroke-width:0.8;" x="288.409091" xlink:href="#m0872f1f1f4" y="512.64"/>
      </g>
     </g>
     <g id="text_1">
      <!-- 0 -->
      <g transform="translate(285.909091 526.515)scale(0.1 -0.1)">
       <defs>
        <path d="M 3.125 29.296875 
Q 3.90625 50 6.4375 56.046875 
Q 8.984375 62.109375 13.671875 66.015625 
Q 18.359375 69.921875 25.1875 69.921875 
Q 32.03125 69.921875 37.109375 64.25 
Q 42.1875 58.59375 43.75 50 
Q 45.3125 41.40625 44.71875 30.265625 
Q 44.140625 19.140625 40.8125 12.109375 
Q 37.5 5.078125 30.859375 2.34375 
Q 24.21875 -0.390625 17.578125 2.921875 
Q 10.9375 6.25 8.203125 11.71875 
Q 5.46875 17.1875 4.296875 23.234375 
Q 3.125 29.296875 3.90625 50 
z
M 12.890625 52.734375 
Q 10.546875 31.25 12.5 22.84375 
Q 14.453125 14.453125 18.9375 10.9375 
Q 23.4375 7.421875 28.125 9.5625 
Q 32.8125 11.71875 34.953125 18.15625 
Q 37.109375 24.609375 37.109375 32.21875 
Q 37.109375 39.84375 36.515625 46.09375 
Q 35.9375 52.34375 33 57.421875 
Q 30.078125 62.5 25.1875 62.6875 
Q 20.3125 62.890625 16.59375 57.8125 
Q 12.890625 52.734375 10.546875 31.25 
z
" id="SimHei-48"/>
       </defs>
       <use xlink:href="#SimHei-48"/>
      </g>
     </g>
    </g>
    <g id="xtick_2">
     <g id="line2d_2">
      <g>
       <use style="stroke:#000000;stroke-width:0.8;" x="455.27512" xlink:href="#m0872f1f1f4" y="512.64"/>
      </g>
     </g>
     <g id="text_2">
      <!-- 25 -->
      <g transform="translate(450.27512 526.515)scale(0.1 -0.1)">
       <defs>
        <path d="M 4.6875 3.90625 
Q 5.078125 9.765625 10.15625 14.453125 
Q 15.234375 19.140625 23.046875 29.09375 
Q 30.859375 39.0625 33.203125 44.53125 
Q 35.546875 50 34.953125 53.90625 
Q 34.375 57.8125 31.25 60.34375 
Q 28.125 62.890625 24.015625 62.5 
Q 19.921875 62.109375 16.203125 59.375 
Q 12.5 56.640625 10.546875 51.171875 
L 3.125 52.34375 
Q 6.25 61.328125 11.125 65.421875 
Q 16.015625 69.53125 22.65625 69.921875 
Q 26.5625 70.3125 29.6875 69.71875 
Q 32.8125 69.140625 36.125 66.984375 
Q 39.453125 64.84375 41.59375 60.546875 
Q 43.75 56.25 43.15625 50.1875 
Q 42.578125 44.140625 37.109375 35.734375 
Q 31.640625 27.34375 16.015625 9.375 
L 44.140625 9.375 
L 44.140625 2.34375 
L 4.6875 2.34375 
z
" id="SimHei-50"/>
        <path d="M 8.59375 20.703125 
Q 11.328125 10.15625 17.96875 8.984375 
Q 24.609375 7.8125 28.703125 10.34375 
Q 32.8125 12.890625 34.5625 16.984375 
Q 36.328125 21.09375 36.125 26.171875 
Q 35.9375 31.25 33.390625 34.765625 
Q 30.859375 38.28125 26.953125 39.453125 
Q 23.046875 40.625 18.15625 39.453125 
Q 13.28125 38.28125 10.15625 33.984375 
L 3.515625 34.765625 
Q 4.296875 37.109375 10.9375 68.359375 
L 41.796875 68.359375 
L 41.796875 61.328125 
L 16.796875 61.328125 
Q 14.84375 50.78125 12.890625 44.53125 
Q 18.75 47.265625 23.828125 47.0625 
Q 28.90625 46.875 33.59375 44.71875 
Q 38.28125 42.578125 40.421875 38.859375 
Q 42.578125 35.15625 43.546875 31.4375 
Q 44.53125 27.734375 44.328125 23.4375 
Q 44.140625 19.140625 42.578125 14.640625 
Q 41.015625 10.15625 37.890625 7.21875 
Q 34.765625 4.296875 30.265625 2.53125 
Q 25.78125 0.78125 19.921875 1.171875 
Q 14.0625 1.5625 8.78125 5.46875 
Q 3.515625 9.375 1.5625 18.75 
z
" id="SimHei-53"/>
       </defs>
       <use xlink:href="#SimHei-50"/>
       <use x="50" xlink:href="#SimHei-53"/>
      </g>
     </g>
    </g>
    <g id="xtick_3">
     <g id="line2d_3">
      <g>
       <use style="stroke:#000000;stroke-width:0.8;" x="622.141148" xlink:href="#m0872f1f1f4" y="512.64"/>
      </g>
     </g>
     <g id="text_3">
      <!-- 50 -->
      <g transform="translate(617.141148 526.515)scale(0.1 -0.1)">
       <use xlink:href="#SimHei-53"/>
       <use x="50" xlink:href="#SimHei-48"/>
      </g>
     </g>
    </g>
    <g id="xtick_4">
     <g id="line2d_4">
      <g>
       <use style="stroke:#000000;stroke-width:0.8;" x="789.007177" xlink:href="#m0872f1f1f4" y="512.64"/>
      </g>
     </g>
     <g id="text_4">
      <!-- 75 -->
      <g transform="translate(784.007177 526.515)scale(0.1 -0.1)">
       <defs>
        <path d="M 13.28125 2.34375 
Q 20.3125 32.03125 37.890625 61.328125 
L 4.296875 61.328125 
L 4.296875 68.359375 
L 46.09375 68.359375 
L 46.09375 61.71875 
Q 27.734375 32.03125 21.875 2.34375 
L 13.28125 2.34375 
z
" id="SimHei-55"/>
       </defs>
       <use xlink:href="#SimHei-55"/>
       <use x="50" xlink:href="#SimHei-53"/>
      </g>
     </g>
    </g>
    <g id="xtick_5">
     <g id="line2d_5">
      <g>
       <use style="stroke:#000000;stroke-width:0.8;" x="955.873206" xlink:href="#m0872f1f1f4" y="512.64"/>
      </g>
     </g>
     <g id="text_5">
      <!-- 100 -->
      <g transform="translate(948.373206 526.515)scale(0.1 -0.1)">
       <defs>
        <path d="M 21.875 56.25 
Q 16.796875 51.171875 8.984375 46.484375 
L 8.984375 53.90625 
Q 18.75 60.546875 25 69.53125 
L 29.6875 69.53125 
L 29.6875 2.34375 
L 21.875 2.34375 
z
" id="SimHei-49"/>
       </defs>
       <use xlink:href="#SimHei-49"/>
       <use x="50" xlink:href="#SimHei-48"/>
       <use x="100" xlink:href="#SimHei-48"/>
      </g>
     </g>
    </g>
    <g id="xtick_6">
     <g id="line2d_6">
      <g>
       <use style="stroke:#000000;stroke-width:0.8;" x="1122.739234" xlink:href="#m0872f1f1f4" y="512.64"/>
      </g>
     </g>
     <g id="text_6">
      <!-- 125 -->
      <g transform="translate(1115.239234 526.515)scale(0.1 -0.1)">
       <use xlink:href="#SimHei-49"/>
       <use x="50" xlink:href="#SimHei-50"/>
       <use x="100" xlink:href="#SimHei-53"/>
      </g>
     </g>
    </g>
    <g id="xtick_7">
     <g id="line2d_7">
      <g>
       <use style="stroke:#000000;stroke-width:0.8;" x="1289.605263" xlink:href="#m0872f1f1f4" y="512.64"/>
      </g>
     </g>
     <g id="text_7">
      <!-- 150 -->
      <g transform="translate(1282.105263 526.515)scale(0.1 -0.1)">
       <use xlink:href="#SimHei-49"/>
       <use x="50" xlink:href="#SimHei-53"/>
       <use x="100" xlink:href="#SimHei-48"/>
      </g>
     </g>
    </g>
    <g id="xtick_8">
     <g id="line2d_8">
      <g>
       <use style="stroke:#000000;stroke-width:0.8;" x="1456.471292" xlink:href="#m0872f1f1f4" y="512.64"/>
      </g>
     </g>
     <g id="text_8">
      <!-- 175 -->
      <g transform="translate(1448.971292 526.515)scale(0.1 -0.1)">
       <use xlink:href="#SimHei-49"/>
       <use x="50" xlink:href="#SimHei-55"/>
       <use x="100" xlink:href="#SimHei-53"/>
      </g>
     </g>
    </g>
   </g>
   <g id="matplotlib.axis_2">
    <g id="ytick_1">
     <g id="line2d_9">
      <defs>
       <path d="M 0 0 
L -3.5 0 
" id="mf1f288fbda" style="stroke:#000000;stroke-width:0.8;"/>
      </defs>
      <g>
       <use style="stroke:#000000;stroke-width:0.8;" x="225" xlink:href="#mf1f288fbda" y="488.266449"/>
      </g>
     </g>
     <g id="text_9">
      <!-- 641.0 -->
      <g transform="translate(193 491.703949)scale(0.1 -0.1)">
       <defs>
        <path d="M 3.515625 19.53125 
Q 4.296875 30.859375 6.046875 34.765625 
Q 7.8125 38.671875 11.328125 44.53125 
L 27.34375 69.53125 
L 36.328125 69.53125 
L 19.921875 43.75 
Q 30.46875 46.484375 36.71875 42.96875 
Q 42.96875 39.453125 45.109375 34.953125 
Q 47.265625 30.46875 47.453125 25.1875 
Q 47.65625 19.921875 45.890625 14.84375 
Q 44.140625 9.765625 39.640625 5.65625 
Q 35.15625 1.5625 27.140625 1.171875 
Q 19.140625 0.78125 13.46875 4.09375 
Q 7.8125 7.421875 5.65625 13.46875 
Q 3.515625 19.53125 4.296875 30.859375 
z
M 12.5 16.015625 
Q 19.53125 8.59375 25.390625 8.203125 
Q 31.25 7.8125 35.15625 12.109375 
Q 39.0625 16.40625 39.0625 24.609375 
Q 39.0625 32.8125 34.171875 35.9375 
Q 29.296875 39.0625 23.234375 38.28125 
Q 17.1875 37.5 14.453125 32.421875 
Q 11.71875 27.34375 12.109375 21.671875 
Q 12.5 16.015625 19.53125 8.59375 
z
" id="SimHei-54"/>
        <path d="M 31.25 17.1875 
L 1.171875 17.1875 
L 1.171875 23.828125 
L 32.8125 69.53125 
L 38.671875 69.53125 
L 38.671875 23.828125 
L 48.046875 23.828125 
L 48.046875 17.1875 
L 38.671875 17.1875 
L 38.671875 2.34375 
L 31.25 2.34375 
z
M 31.25 23.828125 
L 31.25 54.6875 
L 9.375 23.828125 
z
" id="SimHei-52"/>
        <path d="M 16.796875 1.953125 
L 7.8125 1.953125 
L 7.8125 10.546875 
L 16.796875 10.546875 
z
" id="SimHei-46"/>
       </defs>
       <use xlink:href="#SimHei-54"/>
       <use x="50" xlink:href="#SimHei-52"/>
       <use x="100" xlink:href="#SimHei-49"/>
       <use x="150" xlink:href="#SimHei-46"/>
       <use x="200" xlink:href="#SimHei-48"/>
      </g>
     </g>
    </g>
    <g id="ytick_2">
     <g id="line2d_10">
      <g>
       <use style="stroke:#000000;stroke-width:0.8;" x="225" xlink:href="#mf1f288fbda" y="437.975674"/>
      </g>
     </g>
     <g id="text_10">
      <!-- 641.5 -->
      <g transform="translate(193 441.413174)scale(0.1 -0.1)">
       <use xlink:href="#SimHei-54"/>
       <use x="50" xlink:href="#SimHei-52"/>
       <use x="100" xlink:href="#SimHei-49"/>
       <use x="150" xlink:href="#SimHei-46"/>
       <use x="200" xlink:href="#SimHei-53"/>
      </g>
     </g>
    </g>
    <g id="ytick_3">
     <g id="line2d_11">
      <g>
       <use style="stroke:#000000;stroke-width:0.8;" x="225" xlink:href="#mf1f288fbda" y="387.684898"/>
      </g>
     </g>
     <g id="text_11">
      <!-- 642.0 -->
      <g transform="translate(193 391.122398)scale(0.1 -0.1)">
       <use xlink:href="#SimHei-54"/>
       <use x="50" xlink:href="#SimHei-52"/>
       <use x="100" xlink:href="#SimHei-50"/>
       <use x="150" xlink:href="#SimHei-46"/>
       <use x="200" xlink:href="#SimHei-48"/>
      </g>
     </g>
    </g>
    <g id="ytick_4">
     <g id="line2d_12">
      <g>
       <use style="stroke:#000000;stroke-width:0.8;" x="225" xlink:href="#mf1f288fbda" y="337.394123"/>
      </g>
     </g>
     <g id="text_12">
      <!-- 642.5 -->
      <g transform="translate(193 340.831623)scale(0.1 -0.1)">
       <use xlink:href="#SimHei-54"/>
       <use x="50" xlink:href="#SimHei-52"/>
       <use x="100" xlink:href="#SimHei-50"/>
       <use x="150" xlink:href="#SimHei-46"/>
       <use x="200" xlink:href="#SimHei-53"/>
      </g>
     </g>
    </g>
    <g id="ytick_5">
     <g id="line2d_13">
      <g>
       <use style="stroke:#000000;stroke-width:0.8;" x="225" xlink:href="#mf1f288fbda" y="287.103348"/>
      </g>
     </g>
     <g id="text_13">
      <!-- 643.0 -->
      <g transform="translate(193 290.540848)scale(0.1 -0.1)">
       <defs>
        <path d="M 3.90625 19.140625 
L 10.9375 20.3125 
Q 12.5 15.234375 16.015625 11.90625 
Q 19.53125 8.59375 24.796875 8.78125 
Q 30.078125 8.984375 33.203125 13.078125 
Q 36.328125 17.1875 35.9375 22.453125 
Q 35.546875 27.734375 31.828125 30.65625 
Q 28.125 33.59375 19.921875 34.765625 
L 19.921875 39.84375 
Q 28.125 40.625 31.828125 44.140625 
Q 35.546875 47.65625 35.15625 53.3125 
Q 34.765625 58.984375 30.078125 61.515625 
Q 25.390625 64.0625 20.109375 62.109375 
Q 14.84375 60.15625 11.71875 51.171875 
L 4.6875 52.34375 
Q 7.03125 59.375 11.125 64.0625 
Q 15.234375 68.75 22.265625 69.53125 
Q 29.296875 70.3125 34.5625 67.765625 
Q 39.84375 65.234375 41.984375 59.953125 
Q 44.140625 54.6875 42.578125 48.4375 
Q 41.015625 42.1875 33.59375 37.5 
Q 39.0625 35.15625 41.984375 30.46875 
Q 44.921875 25.78125 43.9375 18.15625 
Q 42.96875 10.546875 37.109375 5.859375 
Q 31.25 1.171875 23.828125 1.359375 
Q 16.40625 1.5625 10.9375 6.046875 
Q 5.46875 10.546875 3.90625 19.140625 
z
" id="SimHei-51"/>
       </defs>
       <use xlink:href="#SimHei-54"/>
       <use x="50" xlink:href="#SimHei-52"/>
       <use x="100" xlink:href="#SimHei-51"/>
       <use x="150" xlink:href="#SimHei-46"/>
       <use x="200" xlink:href="#SimHei-48"/>
      </g>
     </g>
    </g>
    <g id="ytick_6">
     <g id="line2d_14">
      <g>
       <use style="stroke:#000000;stroke-width:0.8;" x="225" xlink:href="#mf1f288fbda" y="236.812572"/>
      </g>
     </g>
     <g id="text_14">
      <!-- 643.5 -->
      <g transform="translate(193 240.250072)scale(0.1 -0.1)">
       <use xlink:href="#SimHei-54"/>
       <use x="50" xlink:href="#SimHei-52"/>
       <use x="100" xlink:href="#SimHei-51"/>
       <use x="150" xlink:href="#SimHei-46"/>
       <use x="200" xlink:href="#SimHei-53"/>
      </g>
     </g>
    </g>
    <g id="ytick_7">
     <g id="line2d_15">
      <g>
       <use style="stroke:#000000;stroke-width:0.8;" x="225" xlink:href="#mf1f288fbda" y="186.521797"/>
      </g>
     </g>
     <g id="text_15">
      <!-- 644.0 -->
      <g transform="translate(193 189.959297)scale(0.1 -0.1)">
       <use xlink:href="#SimHei-54"/>
       <use x="50" xlink:href="#SimHei-52"/>
       <use x="100" xlink:href="#SimHei-52"/>
       <use x="150" xlink:href="#SimHei-46"/>
       <use x="200" xlink:href="#SimHei-48"/>
      </g>
     </g>
    </g>
    <g id="ytick_8">
     <g id="line2d_16">
      <g>
       <use style="stroke:#000000;stroke-width:0.8;" x="225" xlink:href="#mf1f288fbda" y="136.231022"/>
      </g>
     </g>
     <g id="text_16">
      <!-- 644.5 -->
      <g transform="translate(193 139.668522)scale(0.1 -0.1)">
       <use xlink:href="#SimHei-54"/>
       <use x="50" xlink:href="#SimHei-52"/>
       <use x="100" xlink:href="#SimHei-52"/>
       <use x="150" xlink:href="#SimHei-46"/>
       <use x="200" xlink:href="#SimHei-53"/>
      </g>
     </g>
    </g>
    <g id="ytick_9">
     <g id="line2d_17">
      <g>
       <use style="stroke:#000000;stroke-width:0.8;" x="225" xlink:href="#mf1f288fbda" y="85.940247"/>
      </g>
     </g>
     <g id="text_17">
      <!-- 645.0 -->
      <g transform="translate(193 89.377747)scale(0.1 -0.1)">
       <use xlink:href="#SimHei-54"/>
       <use x="50" xlink:href="#SimHei-52"/>
       <use x="100" xlink:href="#SimHei-53"/>
       <use x="150" xlink:href="#SimHei-46"/>
       <use x="200" xlink:href="#SimHei-48"/>
      </g>
     </g>
    </g>
   </g>
   <g id="line2d_18">
    <path clip-path="url(#p465d1cbb82)" d="M 288.409091 405.789577 
L 295.083732 372.597666 
L 301.758373 352.481356 
L 308.433014 352.481356 
L 315.107656 350.469725 
L 321.782297 377.626743 
L 328.456938 339.405754 
L 335.131579 331.35923 
L 341.80622 375.615112 
L 348.480861 416.853548 
L 355.155502 359.522064 
L 361.830144 381.650005 
L 368.504785 280.062639 
L 375.179426 352.481356 
L 381.854067 344.434832 
L 388.528708 374.609297 
L 395.203349 329.347599 
L 401.87799 325.324337 
L 408.552632 408.807024 
L 415.227273 283.080086 
L 421.901914 350.469725 
L 428.576555 310.237104 
L 435.251196 373.603481 
L 441.925837 349.463909 
L 448.600478 310.237104 
L 455.27512 371.59185 
L 461.949761 343.429016 
L 468.624402 352.481356 
L 475.299043 396.737238 
L 481.973684 367.568588 
L 488.648325 385.673267 
L 495.322967 354.492987 
L 501.997608 316.271997 
L 508.672249 333.370861 
L 515.34689 343.429016 
L 522.021531 333.370861 
L 528.696172 388.690714 
L 535.370813 394.725607 
L 542.045455 386.679083 
L 548.720096 363.545326 
L 555.394737 347.452278 
L 562.069378 375.615112 
L 568.744019 363.545326 
L 575.41866 394.725607 
L 582.093301 334.376677 
L 588.767943 344.434832 
L 595.442584 366.562773 
L 602.117225 398.748869 
L 608.791866 364.551142 
L 615.466507 310.237104 
L 622.141148 306.213842 
L 628.815789 311.24292 
L 635.490431 326.330152 
L 642.165072 345.440647 
L 648.839713 346.446463 
L 655.514354 338.399939 
L 662.188995 374.609297 
L 668.863636 397.743053 
L 675.538278 354.492987 
L 682.212919 353.487171 
L 688.88756 377.626743 
L 695.562201 370.586035 
L 702.236842 327.335968 
L 708.911483 364.551142 
L 715.586124 359.522064 
L 722.260766 337.394123 
L 728.935407 354.492987 
L 735.610048 336.388308 
L 742.284689 343.429016 
L 748.95933 365.556957 
L 755.633971 366.562773 
L 762.308612 346.446463 
L 768.983254 358.516249 
L 775.657895 291.12661 
L 782.332536 391.70816 
L 789.007177 366.562773 
L 795.681818 332.365046 
L 802.356459 388.690714 
L 809.0311 375.615112 
L 815.705742 393.719791 
L 822.380383 314.260366 
L 829.055024 383.661636 
L 835.729665 321.301075 
L 842.404306 323.312706 
L 849.078947 359.522064 
L 855.753589 403.777946 
L 862.42823 354.492987 
L 869.102871 391.70816 
L 875.777512 363.545326 
L 882.452153 320.295259 
L 889.126794 389.696529 
L 895.801435 298.167318 
L 902.476077 302.19058 
L 909.150718 342.423201 
L 915.825359 301.184765 
L 922.5 368.574404 
L 929.174641 380.64419 
L 935.849282 387.684898 
L 942.523923 341.417385 
L 949.198565 365.556957 
L 955.873206 312.248735 
L 962.547847 302.19058 
L 969.222488 366.562773 
L 975.897129 358.516249 
L 982.57177 386.679083 
L 989.246411 319.289444 
L 995.921053 334.376677 
L 1002.595694 237.818388 
L 1009.270335 338.399939 
L 1015.944976 332.365046 
L 1022.619617 320.295259 
L 1029.294258 321.301075 
L 1035.9689 319.289444 
L 1042.643541 356.504618 
L 1049.318182 321.301075 
L 1055.992823 323.312706 
L 1062.667464 349.463909 
L 1069.342105 353.487171 
L 1076.016746 320.295259 
L 1082.691388 306.213842 
L 1089.366029 324.318521 
L 1096.04067 256.928883 
L 1102.715311 247.876543 
L 1109.389952 339.405754 
L 1116.064593 291.12661 
L 1122.739234 338.399939 
L 1129.413876 288.109163 
L 1136.088517 340.41157 
L 1142.763158 346.446463 
L 1149.437799 317.277813 
L 1156.11244 286.097532 
L 1162.787081 267.992853 
L 1169.461722 342.423201 
L 1176.136364 302.19058 
L 1182.811005 342.423201 
L 1189.485646 303.196396 
L 1196.160287 344.434832 
L 1202.834928 308.225473 
L 1209.509569 276.039377 
L 1216.184211 282.07427 
L 1222.858852 348.458094 
L 1229.533493 336.388308 
L 1236.208134 310.237104 
L 1242.882775 278.051008 
L 1249.557416 292.132425 
L 1256.232057 315.266182 
L 1262.906699 362.539511 
L 1269.58134 285.091717 
L 1276.255981 297.161503 
L 1282.930622 281.068455 
L 1289.605263 305.208027 
L 1296.279904 320.295259 
L 1302.954545 288.109163 
L 1309.629187 306.213842 
L 1316.303828 304.202211 
L 1322.978469 283.080086 
L 1329.65311 367.568588 
L 1336.327751 299.173134 
L 1343.002392 298.167318 
L 1349.677033 241.84165 
L 1356.351675 287.103348 
L 1363.026316 272.016115 
L 1369.700957 302.19058 
L 1376.375598 270.004484 
L 1383.050239 311.24292 
L 1389.72488 252.905621 
L 1396.399522 285.091717 
L 1403.074163 319.289444 
L 1409.748804 266.987038 
L 1416.423445 295.149872 
L 1423.098086 260.952145 
L 1429.772727 253.911436 
L 1436.447368 290.120794 
L 1443.12201 323.312706 
L 1449.796651 225.748602 
L 1456.471292 301.184765 
L 1463.145933 207.643923 
L 1469.820574 248.882359 
L 1476.495215 301.184765 
L 1483.169856 228.766048 
L 1489.844498 242.847466 
L 1496.519139 165.399672 
L 1503.19378 262.963776 
L 1509.868421 179.481089 
L 1516.543062 206.638107 
L 1523.217703 235.806757 
L 1529.892344 254.917252 
L 1543.241627 168.417118 
L 1549.916268 222.731155 
L 1556.590909 252.905621 
L 1556.590909 252.905621 
" style="fill:none;stroke:#1f77b4;stroke-linecap:square;stroke-width:1.5;"/>
   </g>
   <g id="line2d_19">
    <path clip-path="url(#p465d1cbb82)" d="M 288.409091 372.597659 
L 295.083732 359.019154 
L 301.758373 370.250762 
L 308.433014 362.288056 
L 315.107656 410.416329 
L 321.782297 312.248735 
L 328.456938 333.945612 
L 335.131579 423.642803 
L 341.80622 456.862654 
L 348.480861 306.817332 
L 355.155502 405.972453 
L 361.830144 188.952518 
L 368.504785 429.000704 
L 375.179426 340.770789 
L 381.854067 406.862447 
L 388.528708 288.863525 
L 395.203349 326.034324 
L 401.87799 492.122075 
L 408.552632 163.811542 
L 415.227273 420.625356 
L 421.901914 274.554602 
L 428.576555 438.432862 
L 435.251196 327.773279 
L 441.925837 274.991653 
L 448.600478 434.314505 
L 455.27512 317.664665 
L 461.949761 363.508074 
L 468.624402 441.316418 
L 475.299043 339.717904 
L 481.973684 404.44849 
L 488.648325 324.967435 
L 495.322967 280.848433 
L 501.997608 352.664231 
L 508.672249 355.321305 
L 515.34689 325.381812 
L 522.021531 444.485535 
L 528.696172 401.059526 
L 535.370813 379.135466 
L 542.045455 341.494755 
L 548.720096 332.817662 
L 555.394737 404.513909 
L 562.069378 352.481356 
L 568.744019 426.163189 
L 575.41866 275.650767 
L 582.093301 355.856425 
L 588.767943 389.54347 
L 595.442584 431.084767 
L 602.117225 331.212548 
L 608.791866 257.873118 
L 615.466507 304.182095 
L 622.141148 318.125854 
L 628.815789 342.945451 
L 635.490431 365.689801 
L 648.839713 331.578681 
L 655.514354 411.375445 
L 662.188995 421.017977 
L 668.863636 312.127344 
L 675.538278 353.367837 
L 682.212919 402.235696 
L 688.88756 364.122433 
L 695.562201 285.351282 
L 702.236842 402.420894 
L 708.911483 355.215916 
L 715.586124 316.31842 
L 722.260766 372.369071 
L 728.935407 319.319468 
L 735.610048 351.386792 
L 742.284689 388.26798 
L 748.95933 368.128971 
L 755.633971 327.165971 
L 762.308612 371.242609 
L 768.983254 225.307697 
L 775.657895 492.48 
L 782.332536 341.940409 
L 789.007177 299.133431 
L 795.681818 445.238445 
L 802.356459 362.926363 
L 809.0311 411.977252 
L 815.705742 235.945057 
L 822.380383 453.33609 
L 829.055024 259.970861 
L 835.729665 326.318034 
L 842.404306 396.282226 
L 849.078947 448.057494 
L 855.753589 305.804499 
L 862.42823 429.085189 
L 869.102871 335.86254 
L 875.777512 278.005803 
L 882.452153 459.276611 
L 889.126794 207.82077 
L 895.801435 307.339919 
L 902.476077 383.33718 
L 909.150718 261.059146 
L 915.825359 436.355781 
L 922.5 392.975907 
L 929.174641 394.912253 
L 935.849282 295.806731 
L 942.523923 390.102919 
L 949.198565 259.875922 
L 955.873206 293.158158 
L 962.547847 431.319541 
L 969.222488 350.928689 
L 975.897129 415.025671 
L 982.57177 252.723616 
L 989.246411 350.137616 
L 995.921053 142.829924 
L 1002.595694 439.605467 
L 1009.270335 327.003772 
L 1015.944976 309.002694 
L 1022.619617 323.068048 
L 1029.294258 318.050136 
L 1035.9689 394.155941 
L 1042.643541 286.838659 
L 1049.318182 326.041527 
L 1055.992823 376.100678 
L 1062.667464 357.957462 
L 1069.342105 287.827876 
L 1076.016746 292.969196 
L 1082.691388 343.102126 
L 1089.366029 190.769498 
L 1096.04067 240.118573 
L 1102.715311 431.474671 
L 1109.389952 243.772167 
L 1116.064593 386.212384 
L 1122.739234 238.75236 
L 1129.413876 393.228763 
L 1136.088517 352.944973 
L 1142.763158 288.795301 
L 1149.437799 255.83796 
L 1156.11244 250.940058 
L 1162.787081 417.333596 
L 1169.461722 262.7369 
L 1176.136364 383.128704 
L 1182.811005 264.729541 
L 1189.485646 386.124405 
L 1196.160287 272.728262 
L 1202.834928 244.7935 
L 1209.509569 288.999202 
L 1216.184211 415.251427 
L 1222.858852 324.810729 
L 1229.533493 284.758806 
L 1236.208134 246.758189 
L 1242.882775 307.003128 
L 1249.557416 339.024238 
L 1256.232057 410.109072 
L 1262.906699 208.464997 
L 1269.58134 309.965262 
L 1276.255981 265.812461 
L 1282.930622 330.018143 
L 1289.605263 335.948679 
L 1296.279904 256.69728 
L 1302.954545 324.969343 
L 1309.629187 302.850238 
L 1316.303828 262.749634 
L 1322.978469 452.302096 
L 1329.65311 231.456765 
L 1336.327751 297.842656 
L 1343.002392 186.547101 
L 1349.677033 333.106834 
L 1356.351675 257.759774 
L 1363.026316 333.004545 
L 1369.700957 238.651426 
L 1376.375598 353.057859 
L 1383.050239 195.494891 
L 1389.72488 318.004908 
L 1396.399522 354.005136 
L 1403.074163 215.510837 
L 1409.748804 323.967379 
L 1416.423445 227.606403 
L 1423.098086 247.758904 
L 1429.772727 327.002645 
L 1436.447368 356.981362 
L 1443.12201 129.219217 
L 1449.796651 377.218669 
L 1456.471292 115.228909 
L 1463.145933 291.007276 
L 1469.820574 354.074838 
L 1476.495215 157.336291 
L 1483.169856 257.834117 
L 1489.844498 89.28 
L 1496.519139 361.312637 
L 1503.19378 97.235061 
L 1509.868421 234.877472 
L 1516.543062 265.894233 
L 1523.217703 274.838888 
L 1529.892344 169.455206 
L 1536.566986 126.429672 
L 1543.241627 278.013756 
L 1549.916268 283.884738 
L 1556.590909 213.578761 
L 1556.590909 213.578761 
" style="fill:none;stroke:#ff7f0e;stroke-linecap:square;stroke-width:1.5;"/>
   </g>
   <g id="patch_3">
    <path d="M 225 512.64 
L 225 69.12 
" style="fill:none;stroke:#000000;stroke-linecap:square;stroke-linejoin:miter;stroke-width:0.8;"/>
   </g>
   <g id="patch_4">
    <path d="M 1620 512.64 
L 1620 69.12 
" style="fill:none;stroke:#000000;stroke-linecap:square;stroke-linejoin:miter;stroke-width:0.8;"/>
   </g>
   <g id="patch_5">
    <path d="M 225 512.64 
L 1620 512.64 
" style="fill:none;stroke:#000000;stroke-linecap:square;stroke-linejoin:miter;stroke-width:0.8;"/>
   </g>
   <g id="patch_6">
    <path d="M 225 69.12 
L 1620 69.12 
" style="fill:none;stroke:#000000;stroke-linecap:square;stroke-linejoin:miter;stroke-width:0.8;"/>
   </g>
   <g id="text_18">
    <!-- ARIMA趋势预测 -->
    <g transform="translate(883.5 63.12)scale(0.12 -0.12)">
     <defs>
      <path d="M 48.046875 1.953125 
L 38.671875 1.953125 
L 33.203125 22.65625 
L 16.015625 22.65625 
L 10.546875 1.953125 
L 1.171875 1.953125 
L 20.703125 69.53125 
L 28.515625 69.53125 
z
M 31.25 30.078125 
L 25 53.90625 
L 24.21875 53.90625 
L 17.96875 30.078125 
z
" id="SimHei-65"/>
      <path d="M 46.875 1.953125 
L 37.5 1.953125 
L 23.4375 30.859375 
L 13.28125 30.859375 
L 13.28125 1.953125 
L 4.296875 1.953125 
L 4.296875 68.75 
L 23.828125 68.75 
Q 33.203125 68.75 39.0625 64.25 
Q 44.921875 59.765625 44.921875 49.609375 
Q 44.921875 41.796875 41.015625 37.5 
Q 37.109375 33.203125 32.03125 32.03125 
z
M 35.9375 49.609375 
Q 35.9375 55.078125 32.609375 58.203125 
Q 29.296875 61.328125 21.875 61.328125 
L 13.28125 61.328125 
L 13.28125 38.28125 
L 24.21875 38.28125 
Q 28.90625 38.28125 32.421875 40.8125 
Q 35.9375 43.359375 35.9375 49.609375 
z
" id="SimHei-82"/>
      <path d="M 28.90625 1.953125 
L 19.921875 1.953125 
L 19.921875 68.75 
L 28.90625 68.75 
z
" id="SimHei-73"/>
      <path d="M 45.703125 1.953125 
L 37.890625 1.953125 
L 37.890625 49.609375 
L 37.109375 49.609375 
L 27.734375 1.953125 
L 21.484375 1.953125 
L 12.109375 49.609375 
L 11.328125 49.609375 
L 11.328125 1.953125 
L 3.515625 1.953125 
L 3.515625 68.75 
L 15.625 68.75 
L 24.21875 24.609375 
L 25 24.609375 
L 33.59375 68.75 
L 45.703125 68.75 
z
" id="SimHei-77"/>
      <path d="M 93.75 -7.8125 
Q 77.34375 -8.203125 66.203125 -7.8125 
Q 55.078125 -7.421875 46.09375 -5.46875 
Q 37.109375 -3.515625 30.46875 0.390625 
Q 23.828125 4.296875 17.1875 10.9375 
Q 13.671875 -2.34375 9.765625 -9.375 
Q 6.25 -4.6875 3.515625 -3.515625 
Q 7.8125 2.734375 9.375 9.171875 
Q 10.9375 15.625 11.515625 21.484375 
Q 12.109375 27.34375 12.109375 31.640625 
Q 16.015625 30.46875 20.703125 30.078125 
Q 18.75 24.21875 18.75 19.53125 
Q 18.75 14.84375 26.5625 9.765625 
L 26.5625 40.625 
Q 13.28125 40.625 6.25 40.234375 
L 6.25 46.484375 
Q 13.671875 46.09375 24.609375 46.09375 
L 24.609375 61.328125 
Q 16.40625 61.328125 9.375 60.9375 
L 9.375 67.578125 
Q 16.40625 67.1875 24.609375 67.1875 
Q 24.609375 74.21875 24.21875 81.25 
L 32.03125 81.25 
Q 31.640625 75 31.640625 67.1875 
Q 37.5 67.1875 43.75 67.578125 
L 43.75 60.9375 
Q 37.109375 61.328125 31.640625 61.328125 
L 31.640625 46.09375 
Q 39.84375 46.09375 46.875 46.484375 
L 46.875 40.234375 
Q 39.84375 40.625 33.59375 40.625 
L 33.59375 27.734375 
Q 38.671875 27.734375 44.53125 28.125 
L 44.53125 21.875 
Q 39.0625 22.265625 33.59375 22.265625 
L 33.59375 5.46875 
Q 45.703125 -0.78125 64.84375 -0.78125 
Q 84.375 -0.78125 96.875 1.171875 
Q 94.140625 -3.125 93.75 -7.8125 
z
M 92.1875 7.03125 
Q 58.59375 7.03125 51.171875 6.640625 
L 51.171875 13.671875 
Q 58.59375 13.28125 84.375 13.28125 
L 84.375 25.390625 
Q 60.15625 25.390625 54.296875 25 
L 54.296875 31.640625 
Q 60.15625 31.25 84.375 31.25 
L 84.375 44.921875 
L 63.671875 44.921875 
Q 58.984375 44.921875 53.515625 44.53125 
L 53.515625 49.21875 
L 52.34375 47.265625 
Q 49.21875 51.5625 45.703125 52.734375 
Q 51.953125 60.546875 55.859375 68.546875 
Q 59.765625 76.5625 61.328125 82.03125 
Q 66.015625 80.078125 69.921875 79.296875 
Q 67.96875 76.5625 64.84375 70.3125 
L 89.84375 70.3125 
Q 82.03125 57.421875 78.515625 50.390625 
L 92.1875 50.390625 
Q 91.796875 43.359375 91.796875 28.125 
Q 91.796875 13.28125 92.1875 7.03125 
z
M 54.296875 50.78125 
Q 58.984375 50.390625 64.0625 50.390625 
L 70.703125 50.390625 
Q 73.046875 55.078125 78.515625 64.84375 
L 62.109375 64.84375 
Q 57.03125 55.078125 54.296875 50.78125 
z
" id="SimHei-36235"/>
      <path d="M 42.1875 23.4375 
Q 42.578125 26.5625 42.578125 30.078125 
Q 48.046875 28.90625 51.171875 28.515625 
Q 50.390625 26.5625 50 23.4375 
L 83.203125 23.4375 
Q 82.8125 17.96875 81.828125 10.34375 
Q 80.859375 2.734375 79.296875 -0.96875 
Q 77.734375 -4.6875 74.015625 -5.859375 
Q 70.3125 -7.03125 59.765625 -8.203125 
Q 59.375 -4.296875 55.46875 0.390625 
Q 67.578125 -0.390625 69.921875 0.96875 
Q 72.265625 2.34375 73.046875 5.46875 
Q 73.828125 8.59375 74.609375 17.1875 
L 48.828125 17.1875 
Q 44.53125 5.078125 35.15625 -0.1875 
Q 25.78125 -5.46875 12.109375 -9.375 
Q 10.546875 -5.078125 6.25 -1.953125 
Q 16.40625 -0.78125 26.359375 3.515625 
Q 36.328125 7.8125 40.625 17.1875 
L 24.21875 17.1875 
Q 16.796875 17.1875 10.15625 16.796875 
L 10.15625 23.828125 
Q 16.796875 23.4375 24.21875 23.4375 
z
M 36.71875 35.15625 
Q 47.265625 39.0625 52.34375 47.65625 
Q 49.609375 49.609375 44.53125 51.953125 
Q 47.265625 54.296875 48.4375 57.421875 
L 54.6875 53.515625 
Q 55.46875 56.640625 56.25 63.671875 
Q 50.390625 63.671875 45.703125 62.890625 
L 44.921875 69.140625 
L 56.25 69.140625 
Q 56.25 76.5625 55.46875 81.25 
Q 58.984375 80.46875 64.453125 80.078125 
Q 63.28125 76.171875 63.28125 69.53125 
L 82.421875 69.921875 
Q 81.25 62.109375 80.859375 53.90625 
Q 80.46875 45.703125 82.21875 41.40625 
Q 83.984375 37.109375 85.734375 36.515625 
Q 87.5 35.9375 87.5 45.703125 
Q 90.625 42.578125 95.703125 41.796875 
Q 93.359375 32.421875 91.796875 30.078125 
Q 90.234375 27.734375 87.5 27.34375 
Q 84.765625 26.953125 79.875 31.25 
Q 75 35.546875 73.828125 43.75 
Q 72.65625 51.953125 73.828125 64.0625 
L 63.28125 63.671875 
Q 62.5 55.078125 61.71875 50 
Q 64.84375 48.046875 69.53125 45.3125 
Q 66.015625 42.578125 64.0625 39.84375 
Q 61.328125 42.1875 58.984375 43.75 
Q 53.125 36.328125 44.53125 30.46875 
Q 41.796875 33.203125 36.71875 35.15625 
z
M 39.453125 51.5625 
Q 33.203125 50 30.46875 49.609375 
L 30.46875 35.15625 
Q 30.078125 30.859375 25.96875 29.6875 
Q 21.875 28.515625 15.625 27.34375 
Q 15.234375 31.640625 12.5 35.9375 
Q 21.09375 35.546875 22.265625 36.328125 
Q 23.4375 37.109375 23.4375 41.015625 
L 23.4375 48.046875 
Q 13.671875 45.3125 7.03125 43.359375 
Q 5.859375 47.65625 3.515625 50.390625 
Q 10.546875 51.171875 23.4375 53.90625 
L 23.4375 62.890625 
Q 12.5 62.890625 6.640625 62.5 
L 6.640625 69.53125 
Q 12.5 69.140625 23.4375 69.140625 
Q 23.4375 76.171875 23.046875 80.46875 
L 31.640625 80.46875 
Q 30.46875 76.5625 30.46875 69.140625 
Q 34.375 69.140625 40.234375 69.53125 
L 40.234375 62.5 
Q 34.375 62.890625 30.46875 62.890625 
L 30.46875 55.46875 
Q 35.15625 56.25 39.84375 57.8125 
Q 39.453125 55.078125 39.453125 51.5625 
z
" id="SimHei-21183"/>
      <path d="M 81.25 75 
Q 87.109375 75 92.96875 75.390625 
L 92.96875 68.75 
Q 87.109375 69.140625 81.25 69.140625 
L 70.3125 69.140625 
Q 69.140625 63.28125 67.96875 56.25 
L 89.453125 56.25 
Q 89.0625 50.390625 89.0625 43.75 
L 89.0625 26.953125 
Q 89.0625 20.3125 89.453125 13.28125 
L 82.03125 13.28125 
L 82.03125 50.390625 
L 55.46875 50.390625 
L 55.46875 12.5 
L 48.046875 12.5 
Q 48.4375 21.484375 48.4375 26.953125 
L 48.4375 43.359375 
Q 48.4375 49.609375 48.046875 56.25 
L 60.9375 56.25 
Q 62.5 64.84375 62.5 69.140625 
L 58.203125 69.140625 
Q 51.5625 69.140625 44.53125 68.75 
L 44.53125 75.390625 
Q 51.953125 75 58.203125 75 
z
M 40.625 27.734375 
Q 36.71875 28.515625 33.59375 28.515625 
Q 35.15625 35.15625 35.9375 38.28125 
L 27.34375 38.28125 
L 27.34375 1.953125 
Q 26.953125 -4.6875 22.265625 -6.25 
Q 17.578125 -7.8125 11.71875 -7.8125 
Q 10.9375 -3.515625 8.984375 0.390625 
Q 17.578125 -0.390625 18.9375 0.578125 
Q 20.3125 1.5625 20.3125 5.46875 
L 20.3125 38.28125 
L 16.015625 38.28125 
Q 10.9375 38.28125 5.46875 37.890625 
L 5.46875 44.53125 
Q 10.9375 44.140625 15.625 44.140625 
L 44.53125 44.140625 
Q 42.578125 36.328125 40.625 27.734375 
z
M 73.828125 44.921875 
Q 72.265625 40.234375 71.875 32.8125 
Q 71.484375 25.390625 69.71875 16.203125 
Q 67.96875 7.03125 61.90625 0.96875 
Q 55.859375 -5.078125 45.703125 -10.546875 
Q 42.1875 -7.8125 38.671875 -5.46875 
Q 48.046875 -1.953125 53.703125 3.125 
Q 59.375 8.203125 61.71875 14.640625 
Q 64.0625 21.09375 64.640625 28.90625 
Q 65.234375 36.71875 65.234375 45.703125 
L 73.828125 44.921875 
z
M 25.390625 45.3125 
Q 19.921875 51.171875 12.5 57.03125 
Q 14.453125 58.984375 16.796875 61.71875 
Q 19.53125 59.765625 22.265625 57.421875 
Q 27.34375 64.84375 30.46875 68.359375 
L 21.875 68.359375 
Q 14.0625 68.359375 7.03125 67.96875 
L 7.03125 74.609375 
Q 14.0625 74.21875 21.484375 74.21875 
L 40.234375 74.21875 
L 40.234375 68.359375 
Q 34.375 64.0625 26.953125 53.125 
L 30.46875 50 
Q 27.34375 47.265625 25.390625 45.3125 
z
M 74.609375 11.328125 
Q 89.453125 0 94.921875 -5.078125 
Q 91.40625 -7.8125 89.453125 -10.15625 
Q 84.375 -5.078125 80.265625 -1.359375 
Q 76.171875 2.34375 70.703125 5.46875 
Q 72.65625 8.203125 74.609375 11.328125 
z
" id="SimHei-39044"/>
      <path d="M 62.890625 73.828125 
Q 62.5 69.921875 62.5 62.5 
L 62.5 34.765625 
Q 62.5 27.734375 62.890625 21.09375 
L 55.46875 21.09375 
L 55.46875 67.578125 
L 36.71875 67.578125 
L 36.71875 20.703125 
L 29.6875 20.703125 
Q 30.078125 27.734375 30.078125 34.765625 
L 30.078125 62.5 
Q 30.078125 65.625 29.6875 73.828125 
L 62.890625 73.828125 
z
M 92.1875 79.296875 
Q 91.796875 75 91.796875 68.359375 
L 91.796875 0 
Q 91.796875 -5.078125 88.28125 -6.640625 
Q 84.765625 -8.203125 77.734375 -9.375 
Q 76.953125 -5.078125 74.609375 -0.78125 
Q 80.078125 -0.78125 82.21875 -0.390625 
Q 84.375 0 84.375 3.90625 
L 84.375 68.359375 
Q 84.375 74.609375 83.984375 79.296875 
L 92.1875 79.296875 
z
M 51.171875 58.203125 
Q 50.390625 53.125 50 36.328125 
Q 49.609375 19.53125 44.328125 8.59375 
Q 39.0625 -2.34375 32.421875 -9.375 
Q 28.90625 -6.25 25 -5.078125 
Q 34.375 3.90625 38.671875 15.03125 
Q 42.96875 26.171875 43.15625 38.671875 
Q 43.359375 51.171875 42.578125 59.375 
Q 46.875 58.59375 51.171875 58.203125 
z
M 77.34375 66.796875 
Q 76.953125 62.5 76.953125 55.859375 
L 76.953125 28.515625 
Q 76.953125 20.3125 77.34375 13.28125 
L 69.53125 13.28125 
Q 69.921875 17.96875 69.921875 28.515625 
L 69.921875 55.859375 
Q 69.921875 62.5 69.53125 66.796875 
L 77.34375 66.796875 
z
M 26.5625 26.171875 
Q 21.484375 16.796875 17.375 7.609375 
Q 13.28125 -1.5625 11.328125 -6.25 
Q 7.8125 -3.125 3.125 -0.390625 
Q 7.421875 4.6875 11.90625 13.28125 
Q 16.40625 21.875 19.53125 31.25 
Q 23.046875 28.515625 26.5625 26.171875 
z
M 53.125 16.40625 
Q 59.375 10.15625 67.1875 -1.953125 
Q 64.0625 -3.515625 60.546875 -7.03125 
Q 54.296875 4.296875 47.265625 11.71875 
Q 50.390625 13.671875 53.125 16.40625 
z
M 9.375 55.078125 
Q 17.578125 48.828125 23.4375 43.359375 
Q 20.3125 40.234375 17.96875 37.109375 
Q 12.890625 43.359375 4.6875 49.21875 
Q 7.03125 51.5625 9.375 55.078125 
z
M 21.09375 62.5 
Q 14.84375 68.359375 7.421875 73.046875 
Q 9.765625 75.78125 12.109375 78.90625 
Q 20.3125 73.4375 26.171875 68.359375 
Q 23.4375 66.40625 21.09375 62.5 
z
" id="SimHei-27979"/>
     </defs>
     <use xlink:href="#SimHei-65"/>
     <use x="50" xlink:href="#SimHei-82"/>
     <use x="100" xlink:href="#SimHei-73"/>
     <use x="150" xlink:href="#SimHei-77"/>
     <use x="200" xlink:href="#SimHei-65"/>
     <use x="250" xlink:href="#SimHei-36235"/>
     <use x="350" xlink:href="#SimHei-21183"/>
     <use x="450" xlink:href="#SimHei-39044"/>
     <use x="550" xlink:href="#SimHei-27979"/>
    </g>
   </g>
   <g id="legend_1">
    <g id="patch_7">
     <path d="M 1531 103.77625 
L 1613 103.77625 
Q 1615 103.77625 1615 101.77625 
L 1615 76.12 
Q 1615 74.12 1613 74.12 
L 1531 74.12 
Q 1529 74.12 1529 76.12 
L 1529 101.77625 
Q 1529 103.77625 1531 103.77625 
z
" style="fill:#ffffff;opacity:0.8;stroke:#cccccc;stroke-linejoin:miter;"/>
    </g>
    <g id="line2d_20">
     <path d="M 1533 81.62 
L 1553 81.62 
" style="fill:none;stroke:#1f77b4;stroke-linecap:square;stroke-width:1.5;"/>
    </g>
    <g id="line2d_21"/>
    <g id="text_19">
     <!-- real_value -->
     <g transform="translate(1561 85.12)scale(0.1 -0.1)">
      <defs>
       <path d="M 39.0625 37.890625 
Q 31.640625 39.0625 26.5625 35.734375 
Q 21.484375 32.421875 17.96875 24.21875 
L 17.96875 1.953125 
L 10.15625 1.953125 
L 10.15625 45.703125 
L 17.96875 45.703125 
L 17.96875 34.375 
Q 21.484375 40.625 26.75 43.546875 
Q 32.03125 46.484375 39.0625 46.484375 
z
" id="SimHei-114"/>
       <path d="M 44.53125 16.796875 
Q 43.75 9.765625 38.28125 5.46875 
Q 32.8125 1.171875 25.390625 1.171875 
Q 16.015625 1.171875 9.953125 7.21875 
Q 3.90625 13.28125 3.90625 23.828125 
Q 3.90625 34.375 9.953125 40.421875 
Q 16.015625 46.484375 25.390625 46.484375 
Q 33.59375 46.484375 38.859375 41.203125 
Q 44.140625 35.9375 44.140625 23.828125 
L 12.5 23.828125 
Q 12.5 15.234375 16.203125 11.71875 
Q 19.921875 8.203125 25.390625 8.203125 
Q 29.6875 8.203125 32.421875 10.34375 
Q 35.15625 12.5 35.9375 16.796875 
z
M 35.15625 30.078125 
Q 34.375 35.546875 31.640625 37.6875 
Q 28.90625 39.84375 24.609375 39.84375 
Q 20.703125 39.84375 17.578125 37.6875 
Q 14.453125 35.546875 12.890625 30.078125 
z
" id="SimHei-101"/>
       <path d="M 44.921875 1.953125 
L 35.546875 1.953125 
Q 34.765625 2.734375 34.375 4.09375 
Q 33.984375 5.46875 33.984375 7.421875 
Q 31.25 4.296875 27.34375 2.734375 
Q 23.4375 1.171875 19.140625 1.171875 
Q 12.890625 1.171875 8.59375 4.296875 
Q 4.296875 7.421875 4.296875 13.28125 
Q 4.296875 19.140625 8.203125 22.65625 
Q 12.109375 26.171875 20.3125 27.34375 
Q 25.78125 28.125 29.875 29.296875 
Q 33.984375 30.46875 33.984375 32.421875 
Q 33.984375 34.765625 32.21875 37.109375 
Q 30.46875 39.453125 24.609375 39.453125 
Q 19.921875 39.453125 17.765625 37.6875 
Q 15.625 35.9375 14.84375 32.8125 
L 6.25 32.8125 
Q 7.03125 39.0625 11.90625 42.765625 
Q 16.796875 46.484375 24.609375 46.484375 
Q 33.203125 46.484375 37.5 42.578125 
Q 41.796875 38.671875 41.796875 31.640625 
L 41.796875 10.15625 
Q 41.796875 7.8125 42.578125 5.859375 
Q 43.359375 3.90625 44.921875 1.953125 
z
M 33.984375 16.40625 
L 33.984375 24.21875 
Q 31.640625 23.4375 29.484375 22.84375 
Q 27.34375 22.265625 22.265625 21.484375 
Q 16.40625 20.703125 14.640625 18.75 
Q 12.890625 16.796875 12.890625 14.0625 
Q 12.890625 11.71875 14.640625 9.953125 
Q 16.40625 8.203125 19.921875 8.203125 
Q 23.4375 8.203125 27.53125 10.15625 
Q 31.640625 12.109375 33.984375 16.40625 
z
" id="SimHei-97"/>
       <path d="M 28.515625 1.953125 
L 20.703125 1.953125 
L 20.703125 68.75 
L 28.515625 68.75 
z
" id="SimHei-108"/>
       <path d="M 49.21875 -13.28125 
L 0 -13.28125 
L 0 -8.59375 
L 49.21875 -8.59375 
z
" id="SimHei-95"/>
       <path d="M 44.921875 45.703125 
L 28.515625 1.171875 
L 19.921875 1.171875 
L 3.515625 45.703125 
L 11.71875 45.703125 
L 23.828125 11.71875 
L 24.609375 11.71875 
L 36.71875 45.703125 
z
" id="SimHei-118"/>
       <path d="M 43.75 1.953125 
L 35.9375 1.953125 
L 35.9375 10.15625 
Q 32.8125 5.859375 29.09375 3.515625 
Q 25.390625 1.171875 19.53125 1.171875 
Q 12.5 1.171875 8.984375 5.078125 
Q 5.46875 8.984375 5.46875 14.84375 
L 5.46875 45.703125 
L 13.28125 45.703125 
L 13.28125 17.578125 
Q 13.28125 12.890625 15.625 10.15625 
Q 17.96875 7.421875 21.875 7.421875 
Q 26.953125 7.421875 31.4375 12.6875 
Q 35.9375 17.96875 35.9375 25.78125 
L 35.9375 45.703125 
L 43.75 45.703125 
z
" id="SimHei-117"/>
      </defs>
      <use xlink:href="#SimHei-114"/>
      <use x="50" xlink:href="#SimHei-101"/>
      <use x="100" xlink:href="#SimHei-97"/>
      <use x="150" xlink:href="#SimHei-108"/>
      <use x="200" xlink:href="#SimHei-95"/>
      <use x="250" xlink:href="#SimHei-118"/>
      <use x="300" xlink:href="#SimHei-97"/>
      <use x="350" xlink:href="#SimHei-108"/>
      <use x="400" xlink:href="#SimHei-117"/>
      <use x="450" xlink:href="#SimHei-101"/>
     </g>
    </g>
    <g id="line2d_22">
     <path d="M 1533 94.948125 
L 1553 94.948125 
" style="fill:none;stroke:#ff7f0e;stroke-linecap:square;stroke-width:1.5;"/>
    </g>
    <g id="line2d_23"/>
    <g id="text_20">
     <!-- pred_value -->
     <g transform="translate(1561 98.448125)scale(0.1 -0.1)">
      <defs>
       <path d="M 44.140625 23.828125 
Q 44.140625 12.5 38.671875 6.640625 
Q 33.203125 0.78125 25.390625 0.78125 
Q 21.09375 0.78125 17.96875 2.53125 
Q 14.84375 4.296875 12.5 7.8125 
L 12.5 -12.5 
L 4.6875 -12.5 
L 4.6875 45.703125 
L 12.5 45.703125 
L 12.5 39.84375 
Q 14.84375 43.359375 17.96875 44.921875 
Q 21.09375 46.484375 25.390625 46.484375 
Q 33.203125 46.484375 38.671875 40.8125 
Q 44.140625 35.15625 44.140625 23.828125 
z
M 35.546875 23.828125 
Q 35.546875 31.25 32.609375 35.34375 
Q 29.6875 39.453125 23.828125 39.453125 
Q 19.140625 39.453125 15.8125 35.34375 
Q 12.5 31.25 12.5 23.828125 
Q 12.5 16.40625 15.8125 12.109375 
Q 19.140625 7.8125 23.828125 7.8125 
Q 29.6875 7.8125 32.609375 12.109375 
Q 35.546875 16.40625 35.546875 23.828125 
z
" id="SimHei-112"/>
       <path d="M 42.96875 1.953125 
L 35.15625 1.953125 
L 35.15625 7.8125 
Q 32.8125 4.296875 29.6875 2.734375 
Q 26.5625 1.171875 22.265625 1.171875 
Q 14.453125 1.171875 8.984375 6.828125 
Q 3.515625 12.5 3.515625 23.828125 
Q 3.515625 35.15625 8.984375 41.015625 
Q 14.453125 46.875 22.265625 46.875 
Q 26.5625 46.875 29.6875 45.109375 
Q 32.8125 43.359375 35.15625 39.84375 
L 35.15625 68.75 
L 42.96875 68.75 
z
M 35.15625 23.828125 
Q 35.15625 31.25 31.828125 35.546875 
Q 28.515625 39.84375 23.828125 39.84375 
Q 17.96875 39.84375 15.03125 35.546875 
Q 12.109375 31.25 12.109375 23.828125 
Q 12.109375 16.40625 15.03125 12.296875 
Q 17.96875 8.203125 23.828125 8.203125 
Q 28.515625 8.203125 31.828125 12.296875 
Q 35.15625 16.40625 35.15625 23.828125 
z
" id="SimHei-100"/>
      </defs>
      <use xlink:href="#SimHei-112"/>
      <use x="50" xlink:href="#SimHei-114"/>
      <use x="100" xlink:href="#SimHei-101"/>
      <use x="150" xlink:href="#SimHei-100"/>
      <use x="200" xlink:href="#SimHei-95"/>
      <use x="250" xlink:href="#SimHei-118"/>
      <use x="300" xlink:href="#SimHei-97"/>
      <use x="350" xlink:href="#SimHei-108"/>
      <use x="400" xlink:href="#SimHei-117"/>
      <use x="450" xlink:href="#SimHei-101"/>
     </g>
    </g>
   </g>
  </g>
 </g>
 <defs>
  <clipPath id="p465d1cbb82">
   <rect height="443.52" width="1395" x="225" y="69.12"/>
  </clipPath>
 </defs>
</svg>
