<?xml version="1.0" encoding="utf-8" standalone="no"?>
<!DOCTYPE svg PUBLIC "-//W3C//DTD SVG 1.1//EN"
  "http://www.w3.org/Graphics/SVG/1.1/DTD/svg11.dtd">
<!-- Created with matplotlib (https://matplotlib.org/) -->
<svg height="576pt" version="1.1" viewBox="0 0 1800 576" width="1800pt" xmlns="http://www.w3.org/2000/svg" xmlns:xlink="http://www.w3.org/1999/xlink">
 <metadata>
  <rdf:RDF xmlns:cc="http://creativecommons.org/ns#" xmlns:dc="http://purl.org/dc/elements/1.1/" xmlns:rdf="http://www.w3.org/1999/02/22-rdf-syntax-ns#">
   <cc:Work>
    <dc:type rdf:resource="http://purl.org/dc/dcmitype/StillImage"/>
    <dc:date>2022-10-05T11:42:22.895161</dc:date>
    <dc:format>image/svg+xml</dc:format>
    <dc:creator>
     <cc:Agent>
      <dc:title>Matplotlib v3.3.4, https://matplotlib.org/</dc:title>
     </cc:Agent>
    </dc:creator>
   </cc:Work>
  </rdf:RDF>
 </metadata>
 <defs>
  <style type="text/css">*{stroke-linecap:butt;stroke-linejoin:round;}</style>
 </defs>
 <g id="figure_1">
  <g id="patch_1">
   <path d="M 0 576 
L 1800 576 
L 1800 0 
L 0 0 
z
" style="fill:#ffffff;"/>
  </g>
  <g id="axes_1">
   <g id="patch_2">
    <path d="M 225 512.64 
L 1620 512.64 
L 1620 69.12 
L 225 69.12 
z
" style="fill:#ffffff;"/>
   </g>
   <g id="matplotlib.axis_1">
    <g id="xtick_1">
     <g id="line2d_1">
      <defs>
       <path d="M 0 0 
L 0 3.5 
" id="m8676686cbe" style="stroke:#000000;stroke-width:0.8;"/>
      </defs>
      <g>
       <use style="stroke:#000000;stroke-width:0.8;" x="281.73445" xlink:href="#m8676686cbe" y="512.64"/>
      </g>
     </g>
     <g id="text_1">
      <!-- 0 -->
      <g transform="translate(279.23445 526.515)scale(0.1 -0.1)">
       <defs>
        <path d="M 3.125 29.296875 
Q 3.90625 50 6.4375 56.046875 
Q 8.984375 62.109375 13.671875 66.015625 
Q 18.359375 69.921875 25.1875 69.921875 
Q 32.03125 69.921875 37.109375 64.25 
Q 42.1875 58.59375 43.75 50 
Q 45.3125 41.40625 44.71875 30.265625 
Q 44.140625 19.140625 40.8125 12.109375 
Q 37.5 5.078125 30.859375 2.34375 
Q 24.21875 -0.390625 17.578125 2.921875 
Q 10.9375 6.25 8.203125 11.71875 
Q 5.46875 17.1875 4.296875 23.234375 
Q 3.125 29.296875 3.90625 50 
z
M 12.890625 52.734375 
Q 10.546875 31.25 12.5 22.84375 
Q 14.453125 14.453125 18.9375 10.9375 
Q 23.4375 7.421875 28.125 9.5625 
Q 32.8125 11.71875 34.953125 18.15625 
Q 37.109375 24.609375 37.109375 32.21875 
Q 37.109375 39.84375 36.515625 46.09375 
Q 35.9375 52.34375 33 57.421875 
Q 30.078125 62.5 25.1875 62.6875 
Q 20.3125 62.890625 16.59375 57.8125 
Q 12.890625 52.734375 10.546875 31.25 
z
" id="SimHei-48"/>
       </defs>
       <use xlink:href="#SimHei-48"/>
      </g>
     </g>
    </g>
    <g id="xtick_2">
     <g id="line2d_2">
      <g>
       <use style="stroke:#000000;stroke-width:0.8;" x="448.600478" xlink:href="#m8676686cbe" y="512.64"/>
      </g>
     </g>
     <g id="text_2">
      <!-- 25 -->
      <g transform="translate(443.600478 526.515)scale(0.1 -0.1)">
       <defs>
        <path d="M 4.6875 3.90625 
Q 5.078125 9.765625 10.15625 14.453125 
Q 15.234375 19.140625 23.046875 29.09375 
Q 30.859375 39.0625 33.203125 44.53125 
Q 35.546875 50 34.953125 53.90625 
Q 34.375 57.8125 31.25 60.34375 
Q 28.125 62.890625 24.015625 62.5 
Q 19.921875 62.109375 16.203125 59.375 
Q 12.5 56.640625 10.546875 51.171875 
L 3.125 52.34375 
Q 6.25 61.328125 11.125 65.421875 
Q 16.015625 69.53125 22.65625 69.921875 
Q 26.5625 70.3125 29.6875 69.71875 
Q 32.8125 69.140625 36.125 66.984375 
Q 39.453125 64.84375 41.59375 60.546875 
Q 43.75 56.25 43.15625 50.1875 
Q 42.578125 44.140625 37.109375 35.734375 
Q 31.640625 27.34375 16.015625 9.375 
L 44.140625 9.375 
L 44.140625 2.34375 
L 4.6875 2.34375 
z
" id="SimHei-50"/>
        <path d="M 8.59375 20.703125 
Q 11.328125 10.15625 17.96875 8.984375 
Q 24.609375 7.8125 28.703125 10.34375 
Q 32.8125 12.890625 34.5625 16.984375 
Q 36.328125 21.09375 36.125 26.171875 
Q 35.9375 31.25 33.390625 34.765625 
Q 30.859375 38.28125 26.953125 39.453125 
Q 23.046875 40.625 18.15625 39.453125 
Q 13.28125 38.28125 10.15625 33.984375 
L 3.515625 34.765625 
Q 4.296875 37.109375 10.9375 68.359375 
L 41.796875 68.359375 
L 41.796875 61.328125 
L 16.796875 61.328125 
Q 14.84375 50.78125 12.890625 44.53125 
Q 18.75 47.265625 23.828125 47.0625 
Q 28.90625 46.875 33.59375 44.71875 
Q 38.28125 42.578125 40.421875 38.859375 
Q 42.578125 35.15625 43.546875 31.4375 
Q 44.53125 27.734375 44.328125 23.4375 
Q 44.140625 19.140625 42.578125 14.640625 
Q 41.015625 10.15625 37.890625 7.21875 
Q 34.765625 4.296875 30.265625 2.53125 
Q 25.78125 0.78125 19.921875 1.171875 
Q 14.0625 1.5625 8.78125 5.46875 
Q 3.515625 9.375 1.5625 18.75 
z
" id="SimHei-53"/>
       </defs>
       <use xlink:href="#SimHei-50"/>
       <use x="50" xlink:href="#SimHei-53"/>
      </g>
     </g>
    </g>
    <g id="xtick_3">
     <g id="line2d_3">
      <g>
       <use style="stroke:#000000;stroke-width:0.8;" x="615.466507" xlink:href="#m8676686cbe" y="512.64"/>
      </g>
     </g>
     <g id="text_3">
      <!-- 50 -->
      <g transform="translate(610.466507 526.515)scale(0.1 -0.1)">
       <use xlink:href="#SimHei-53"/>
       <use x="50" xlink:href="#SimHei-48"/>
      </g>
     </g>
    </g>
    <g id="xtick_4">
     <g id="line2d_4">
      <g>
       <use style="stroke:#000000;stroke-width:0.8;" x="782.332536" xlink:href="#m8676686cbe" y="512.64"/>
      </g>
     </g>
     <g id="text_4">
      <!-- 75 -->
      <g transform="translate(777.332536 526.515)scale(0.1 -0.1)">
       <defs>
        <path d="M 13.28125 2.34375 
Q 20.3125 32.03125 37.890625 61.328125 
L 4.296875 61.328125 
L 4.296875 68.359375 
L 46.09375 68.359375 
L 46.09375 61.71875 
Q 27.734375 32.03125 21.875 2.34375 
L 13.28125 2.34375 
z
" id="SimHei-55"/>
       </defs>
       <use xlink:href="#SimHei-55"/>
       <use x="50" xlink:href="#SimHei-53"/>
      </g>
     </g>
    </g>
    <g id="xtick_5">
     <g id="line2d_5">
      <g>
       <use style="stroke:#000000;stroke-width:0.8;" x="949.198565" xlink:href="#m8676686cbe" y="512.64"/>
      </g>
     </g>
     <g id="text_5">
      <!-- 100 -->
      <g transform="translate(941.698565 526.515)scale(0.1 -0.1)">
       <defs>
        <path d="M 21.875 56.25 
Q 16.796875 51.171875 8.984375 46.484375 
L 8.984375 53.90625 
Q 18.75 60.546875 25 69.53125 
L 29.6875 69.53125 
L 29.6875 2.34375 
L 21.875 2.34375 
z
" id="SimHei-49"/>
       </defs>
       <use xlink:href="#SimHei-49"/>
       <use x="50" xlink:href="#SimHei-48"/>
       <use x="100" xlink:href="#SimHei-48"/>
      </g>
     </g>
    </g>
    <g id="xtick_6">
     <g id="line2d_6">
      <g>
       <use style="stroke:#000000;stroke-width:0.8;" x="1116.064593" xlink:href="#m8676686cbe" y="512.64"/>
      </g>
     </g>
     <g id="text_6">
      <!-- 125 -->
      <g transform="translate(1108.564593 526.515)scale(0.1 -0.1)">
       <use xlink:href="#SimHei-49"/>
       <use x="50" xlink:href="#SimHei-50"/>
       <use x="100" xlink:href="#SimHei-53"/>
      </g>
     </g>
    </g>
    <g id="xtick_7">
     <g id="line2d_7">
      <g>
       <use style="stroke:#000000;stroke-width:0.8;" x="1282.930622" xlink:href="#m8676686cbe" y="512.64"/>
      </g>
     </g>
     <g id="text_7">
      <!-- 150 -->
      <g transform="translate(1275.430622 526.515)scale(0.1 -0.1)">
       <use xlink:href="#SimHei-49"/>
       <use x="50" xlink:href="#SimHei-53"/>
       <use x="100" xlink:href="#SimHei-48"/>
      </g>
     </g>
    </g>
    <g id="xtick_8">
     <g id="line2d_8">
      <g>
       <use style="stroke:#000000;stroke-width:0.8;" x="1449.796651" xlink:href="#m8676686cbe" y="512.64"/>
      </g>
     </g>
     <g id="text_8">
      <!-- 175 -->
      <g transform="translate(1442.296651 526.515)scale(0.1 -0.1)">
       <use xlink:href="#SimHei-49"/>
       <use x="50" xlink:href="#SimHei-55"/>
       <use x="100" xlink:href="#SimHei-53"/>
      </g>
     </g>
    </g>
    <g id="xtick_9">
     <g id="line2d_9">
      <g>
       <use style="stroke:#000000;stroke-width:0.8;" x="1616.662679" xlink:href="#m8676686cbe" y="512.64"/>
      </g>
     </g>
     <g id="text_9">
      <!-- 200 -->
      <g transform="translate(1609.162679 526.515)scale(0.1 -0.1)">
       <use xlink:href="#SimHei-50"/>
       <use x="50" xlink:href="#SimHei-48"/>
       <use x="100" xlink:href="#SimHei-48"/>
      </g>
     </g>
    </g>
   </g>
   <g id="matplotlib.axis_2">
    <g id="ytick_1">
     <g id="line2d_10">
      <defs>
       <path d="M 0 0 
L -3.5 0 
" id="mb9545e7302" style="stroke:#000000;stroke-width:0.8;"/>
      </defs>
      <g>
       <use style="stroke:#000000;stroke-width:0.8;" x="225" xlink:href="#mb9545e7302" y="491.338877"/>
      </g>
     </g>
     <g id="text_10">
      <!-- -1.0 -->
      <g transform="translate(198 494.776377)scale(0.1 -0.1)">
       <defs>
        <path d="M 46.484375 33.203125 
L 1.953125 33.203125 
L 1.953125 39.453125 
L 46.484375 39.453125 
z
" id="SimHei-45"/>
        <path d="M 16.796875 1.953125 
L 7.8125 1.953125 
L 7.8125 10.546875 
L 16.796875 10.546875 
z
" id="SimHei-46"/>
       </defs>
       <use xlink:href="#SimHei-45"/>
       <use x="50" xlink:href="#SimHei-49"/>
       <use x="100" xlink:href="#SimHei-46"/>
       <use x="150" xlink:href="#SimHei-48"/>
      </g>
     </g>
    </g>
    <g id="ytick_2">
     <g id="line2d_11">
      <g>
       <use style="stroke:#000000;stroke-width:0.8;" x="225" xlink:href="#mb9545e7302" y="399.367788"/>
      </g>
     </g>
     <g id="text_11">
      <!-- -0.5 -->
      <g transform="translate(198 402.805288)scale(0.1 -0.1)">
       <use xlink:href="#SimHei-45"/>
       <use x="50" xlink:href="#SimHei-48"/>
       <use x="100" xlink:href="#SimHei-46"/>
       <use x="150" xlink:href="#SimHei-53"/>
      </g>
     </g>
    </g>
    <g id="ytick_3">
     <g id="line2d_12">
      <g>
       <use style="stroke:#000000;stroke-width:0.8;" x="225" xlink:href="#mb9545e7302" y="307.396699"/>
      </g>
     </g>
     <g id="text_12">
      <!-- 0.0 -->
      <g transform="translate(203 310.834199)scale(0.1 -0.1)">
       <use xlink:href="#SimHei-48"/>
       <use x="50" xlink:href="#SimHei-46"/>
       <use x="100" xlink:href="#SimHei-48"/>
      </g>
     </g>
    </g>
    <g id="ytick_4">
     <g id="line2d_13">
      <g>
       <use style="stroke:#000000;stroke-width:0.8;" x="225" xlink:href="#mb9545e7302" y="215.42561"/>
      </g>
     </g>
     <g id="text_13">
      <!-- 0.5 -->
      <g transform="translate(203 218.86311)scale(0.1 -0.1)">
       <use xlink:href="#SimHei-48"/>
       <use x="50" xlink:href="#SimHei-46"/>
       <use x="100" xlink:href="#SimHei-53"/>
      </g>
     </g>
    </g>
    <g id="ytick_5">
     <g id="line2d_14">
      <g>
       <use style="stroke:#000000;stroke-width:0.8;" x="225" xlink:href="#mb9545e7302" y="123.454521"/>
      </g>
     </g>
     <g id="text_14">
      <!-- 1.0 -->
      <g transform="translate(203 126.892021)scale(0.1 -0.1)">
       <use xlink:href="#SimHei-49"/>
       <use x="50" xlink:href="#SimHei-46"/>
       <use x="100" xlink:href="#SimHei-48"/>
      </g>
     </g>
    </g>
   </g>
   <g id="line2d_15">
    <path clip-path="url(#pf693b1e35e)" d="M 288.409091 307.396687 
L 295.083732 319.352936 
L 301.758373 339.893148 
L 308.433014 329.009904 
L 315.107656 367.361849 
L 321.782297 257.73231 
L 328.456938 312.12664 
L 335.131579 395.229089 
L 341.80622 380.56481 
L 348.480861 211.010997 
L 355.155502 351.877262 
L 361.830144 140.775742 
L 368.504785 447.334248 
L 375.179426 300.695948 
L 381.854067 366.380824 
L 388.528708 233.359972 
L 395.203349 308.695114 
L 401.87799 459.762137 
L 408.552632 89.28 
L 415.227273 435.696368 
L 421.901914 242.141021 
L 428.576555 425.955794 
L 435.251196 267.729168 
L 441.925837 242.940294 
L 448.600478 422.103041 
L 455.27512 260.279202 
L 461.949761 327.562212 
L 468.624402 388.9225 
L 475.299043 256.463744 
L 481.973684 341.732572 
L 488.648325 253.400769 
L 495.322967 242.614563 
L 501.997608 342.680153 
L 508.672249 329.145156 
L 515.34689 292.786434 
L 522.021531 409.433513 
L 528.696172 318.980084 
L 535.370813 293.601035 
L 542.045455 267.070914 
L 548.720096 280.633112 
L 555.394737 360.246427 
L 562.069378 287.163059 
L 568.744019 364.889324 
L 575.41866 199.99955 
L 582.093301 328.284355 
L 588.767943 349.423488 
L 595.442584 366.532152 
L 602.117225 246.427531 
L 608.791866 211.634149 
L 615.466507 303.681067 
L 622.141148 319.984115 
L 628.815789 337.782532 
L 635.490431 344.428077 
L 642.165072 311.245859 
L 648.839713 294.922075 
L 655.514354 374.634134 
L 662.188995 349.961564 
L 668.863636 229.918985 
L 675.538278 307.178462 
L 682.212919 352.401218 
L 688.88756 295.576152 
L 695.562201 230.615674 
L 702.236842 376.652389 
L 708.911483 299.521674 
L 715.586124 268.853738 
L 722.260766 340.08824 
L 728.935407 276.181437 
L 735.610048 321.949771 
L 742.284689 348.930309 
L 755.633971 272.136797 
L 762.308612 330.670494 
L 768.983254 187.027961 
L 775.657895 491.686876 
L 782.332536 262.367653 
L 789.007177 246.623171 
L 795.681818 410.810424 
L 802.356459 284.191685 
L 809.0311 340.785696 
L 815.705742 164.17472 
L 822.380383 434.816398 
L 829.055024 195.236834 
L 835.729665 312.892803 
L 842.404306 374.623185 
L 849.078947 388.374537 
L 855.753589 218.355851 
L 862.42823 375.751303 
L 869.102871 256.770795 
L 875.777512 230.058314 
L 882.452153 434.64381 
L 889.126794 142.172154 
L 895.801435 316.813739 
L 902.476077 382.21963 
L 909.150718 234.015511 
L 915.825359 431.354364 
L 922.5 329.948776 
L 929.174641 320.613987 
L 935.849282 223.984552 
L 942.523923 352.286022 
L 949.198565 211.618007 
L 955.873206 290.878327 
L 962.547847 425.823001 
L 969.222488 293.520672 
L 975.897129 359.236556 
L 982.57177 185.662014 
L 989.246411 336.220091 
L 995.921053 133.683082 
L 1002.595694 492.48 
L 1009.270335 297.592074 
L 1015.944976 286.745009 
L 1022.619617 310.628116 
L 1029.294258 305.130269 
L 1035.9689 376.25293 
L 1042.643541 244.3723 
L 1049.318182 312.38713 
L 1055.992823 356.109662 
L 1062.667464 315.571906 
L 1069.342105 248.020787 
L 1076.016746 283.175069 
L 1082.691388 341.747901 
L 1089.366029 186.405312 
L 1096.04067 293.209029 
L 1102.715311 475.771088 
L 1109.389952 220.795535 
L 1116.064593 394.835452 
L 1122.739234 217.133645 
L 1129.413876 403.988068 
L 1136.088517 319.281088 
L 1142.763158 255.308266 
L 1149.437799 252.058402 
L 1156.11244 276.210778 
L 1162.787081 444.391816 
L 1169.461722 235.244342 
L 1176.136364 381.838373 
L 1182.811005 237.049035 
L 1189.485646 383.638026 
L 1196.160287 242.479879 
L 1202.834928 250.254662 
L 1209.509569 320.06092 
L 1216.184211 429.547443 
L 1222.858852 286.22378 
L 1229.533493 260.802332 
L 1236.208134 250.168815 
L 1242.882775 334.592039 
L 1249.557416 350.84511 
L 1256.232057 394.391269 
L 1262.906699 167.262791 
L 1269.58134 330.812041 
L 1276.255981 279.496745 
L 1282.930622 352.769103 
L 1289.605263 336.023461 
L 1296.279904 249.951073 
L 1302.954545 341.696505 
L 1309.629187 304.924229 
L 1316.303828 270.216645 
L 1322.978469 462.356192 
L 1329.65311 183.55792 
L 1336.327751 306.802961 
L 1343.002392 206.274777 
L 1349.677033 391.527253 
L 1356.351675 281.324895 
L 1363.026316 363.748861 
L 1369.700957 250.05865 
L 1376.375598 383.867294 
L 1383.050239 202.404734 
L 1389.72488 367.587899 
L 1396.399522 370.884286 
L 1403.074163 213.25772 
L 1409.748804 360.097765 
L 1416.423445 246.414457 
L 1423.098086 296.145032 
L 1429.772727 374.845729 
L 1436.447368 368.969482 
L 1443.12201 130.865066 
L 1449.796651 446.446474 
L 1456.471292 138.389373 
L 1463.145933 384.434178 
L 1469.820574 404.12135 
L 1476.495215 176.766925 
L 1483.169856 334.804084 
L 1489.844498 168.190074 
L 1496.519139 487.255766 
L 1503.19378 156.986277 
L 1509.868421 359.040466 
L 1516.543062 362.420268 
L 1523.217703 343.829118 
L 1529.892344 230.200004 
L 1536.566986 230.610626 
L 1543.241627 408.496771 
L 1549.916268 364.05089 
L 1556.590909 272.264707 
L 1556.590909 272.264707 
" style="fill:none;stroke:#1f77b4;stroke-linecap:square;stroke-width:1.5;"/>
   </g>
   <g id="patch_3">
    <path d="M 225 512.64 
L 225 69.12 
" style="fill:none;stroke:#000000;stroke-linecap:square;stroke-linejoin:miter;stroke-width:0.8;"/>
   </g>
   <g id="patch_4">
    <path d="M 1620 512.64 
L 1620 69.12 
" style="fill:none;stroke:#000000;stroke-linecap:square;stroke-linejoin:miter;stroke-width:0.8;"/>
   </g>
   <g id="patch_5">
    <path d="M 225 512.64 
L 1620 512.64 
" style="fill:none;stroke:#000000;stroke-linecap:square;stroke-linejoin:miter;stroke-width:0.8;"/>
   </g>
   <g id="patch_6">
    <path d="M 225 69.12 
L 1620 69.12 
" style="fill:none;stroke:#000000;stroke-linecap:square;stroke-linejoin:miter;stroke-width:0.8;"/>
   </g>
   <g id="text_15">
    <!-- 预测误差 -->
    <g transform="translate(898.5 63.12)scale(0.12 -0.12)">
     <defs>
      <path d="M 81.25 75 
Q 87.109375 75 92.96875 75.390625 
L 92.96875 68.75 
Q 87.109375 69.140625 81.25 69.140625 
L 70.3125 69.140625 
Q 69.140625 63.28125 67.96875 56.25 
L 89.453125 56.25 
Q 89.0625 50.390625 89.0625 43.75 
L 89.0625 26.953125 
Q 89.0625 20.3125 89.453125 13.28125 
L 82.03125 13.28125 
L 82.03125 50.390625 
L 55.46875 50.390625 
L 55.46875 12.5 
L 48.046875 12.5 
Q 48.4375 21.484375 48.4375 26.953125 
L 48.4375 43.359375 
Q 48.4375 49.609375 48.046875 56.25 
L 60.9375 56.25 
Q 62.5 64.84375 62.5 69.140625 
L 58.203125 69.140625 
Q 51.5625 69.140625 44.53125 68.75 
L 44.53125 75.390625 
Q 51.953125 75 58.203125 75 
z
M 40.625 27.734375 
Q 36.71875 28.515625 33.59375 28.515625 
Q 35.15625 35.15625 35.9375 38.28125 
L 27.34375 38.28125 
L 27.34375 1.953125 
Q 26.953125 -4.6875 22.265625 -6.25 
Q 17.578125 -7.8125 11.71875 -7.8125 
Q 10.9375 -3.515625 8.984375 0.390625 
Q 17.578125 -0.390625 18.9375 0.578125 
Q 20.3125 1.5625 20.3125 5.46875 
L 20.3125 38.28125 
L 16.015625 38.28125 
Q 10.9375 38.28125 5.46875 37.890625 
L 5.46875 44.53125 
Q 10.9375 44.140625 15.625 44.140625 
L 44.53125 44.140625 
Q 42.578125 36.328125 40.625 27.734375 
z
M 73.828125 44.921875 
Q 72.265625 40.234375 71.875 32.8125 
Q 71.484375 25.390625 69.71875 16.203125 
Q 67.96875 7.03125 61.90625 0.96875 
Q 55.859375 -5.078125 45.703125 -10.546875 
Q 42.1875 -7.8125 38.671875 -5.46875 
Q 48.046875 -1.953125 53.703125 3.125 
Q 59.375 8.203125 61.71875 14.640625 
Q 64.0625 21.09375 64.640625 28.90625 
Q 65.234375 36.71875 65.234375 45.703125 
L 73.828125 44.921875 
z
M 25.390625 45.3125 
Q 19.921875 51.171875 12.5 57.03125 
Q 14.453125 58.984375 16.796875 61.71875 
Q 19.53125 59.765625 22.265625 57.421875 
Q 27.34375 64.84375 30.46875 68.359375 
L 21.875 68.359375 
Q 14.0625 68.359375 7.03125 67.96875 
L 7.03125 74.609375 
Q 14.0625 74.21875 21.484375 74.21875 
L 40.234375 74.21875 
L 40.234375 68.359375 
Q 34.375 64.0625 26.953125 53.125 
L 30.46875 50 
Q 27.34375 47.265625 25.390625 45.3125 
z
M 74.609375 11.328125 
Q 89.453125 0 94.921875 -5.078125 
Q 91.40625 -7.8125 89.453125 -10.15625 
Q 84.375 -5.078125 80.265625 -1.359375 
Q 76.171875 2.34375 70.703125 5.46875 
Q 72.65625 8.203125 74.609375 11.328125 
z
" id="SimHei-39044"/>
      <path d="M 62.890625 73.828125 
Q 62.5 69.921875 62.5 62.5 
L 62.5 34.765625 
Q 62.5 27.734375 62.890625 21.09375 
L 55.46875 21.09375 
L 55.46875 67.578125 
L 36.71875 67.578125 
L 36.71875 20.703125 
L 29.6875 20.703125 
Q 30.078125 27.734375 30.078125 34.765625 
L 30.078125 62.5 
Q 30.078125 65.625 29.6875 73.828125 
L 62.890625 73.828125 
z
M 92.1875 79.296875 
Q 91.796875 75 91.796875 68.359375 
L 91.796875 0 
Q 91.796875 -5.078125 88.28125 -6.640625 
Q 84.765625 -8.203125 77.734375 -9.375 
Q 76.953125 -5.078125 74.609375 -0.78125 
Q 80.078125 -0.78125 82.21875 -0.390625 
Q 84.375 0 84.375 3.90625 
L 84.375 68.359375 
Q 84.375 74.609375 83.984375 79.296875 
L 92.1875 79.296875 
z
M 51.171875 58.203125 
Q 50.390625 53.125 50 36.328125 
Q 49.609375 19.53125 44.328125 8.59375 
Q 39.0625 -2.34375 32.421875 -9.375 
Q 28.90625 -6.25 25 -5.078125 
Q 34.375 3.90625 38.671875 15.03125 
Q 42.96875 26.171875 43.15625 38.671875 
Q 43.359375 51.171875 42.578125 59.375 
Q 46.875 58.59375 51.171875 58.203125 
z
M 77.34375 66.796875 
Q 76.953125 62.5 76.953125 55.859375 
L 76.953125 28.515625 
Q 76.953125 20.3125 77.34375 13.28125 
L 69.53125 13.28125 
Q 69.921875 17.96875 69.921875 28.515625 
L 69.921875 55.859375 
Q 69.921875 62.5 69.53125 66.796875 
L 77.34375 66.796875 
z
M 26.5625 26.171875 
Q 21.484375 16.796875 17.375 7.609375 
Q 13.28125 -1.5625 11.328125 -6.25 
Q 7.8125 -3.125 3.125 -0.390625 
Q 7.421875 4.6875 11.90625 13.28125 
Q 16.40625 21.875 19.53125 31.25 
Q 23.046875 28.515625 26.5625 26.171875 
z
M 53.125 16.40625 
Q 59.375 10.15625 67.1875 -1.953125 
Q 64.0625 -3.515625 60.546875 -7.03125 
Q 54.296875 4.296875 47.265625 11.71875 
Q 50.390625 13.671875 53.125 16.40625 
z
M 9.375 55.078125 
Q 17.578125 48.828125 23.4375 43.359375 
Q 20.3125 40.234375 17.96875 37.109375 
Q 12.890625 43.359375 4.6875 49.21875 
Q 7.03125 51.5625 9.375 55.078125 
z
M 21.09375 62.5 
Q 14.84375 68.359375 7.421875 73.046875 
Q 9.765625 75.78125 12.109375 78.90625 
Q 20.3125 73.4375 26.171875 68.359375 
Q 23.4375 66.40625 21.09375 62.5 
z
" id="SimHei-27979"/>
      <path d="M 72.265625 42.96875 
Q 83.203125 42.96875 90.625 43.359375 
L 90.625 36.71875 
Q 82.8125 37.109375 72.265625 37.109375 
L 64.84375 37.109375 
Q 64.84375 33.203125 64.0625 25.78125 
L 78.515625 25.78125 
Q 87.109375 25.78125 95.3125 26.171875 
L 95.3125 19.140625 
Q 87.109375 19.53125 78.515625 19.53125 
L 66.40625 19.53125 
Q 71.484375 9.375 78.90625 4.484375 
Q 86.328125 -0.390625 95.703125 -1.953125 
Q 92.1875 -5.46875 90.234375 -9.765625 
Q 76.171875 -4.296875 69.53125 2.734375 
Q 62.890625 9.765625 60.9375 15.625 
Q 56.25 5.078125 48.828125 -0.96875 
Q 41.40625 -7.03125 31.640625 -10.546875 
Q 30.859375 -7.03125 26.953125 -3.125 
Q 38.671875 -1.171875 45.890625 6.828125 
Q 53.125 14.84375 54.296875 19.53125 
L 46.484375 19.53125 
Q 37.5 19.53125 31.640625 19.140625 
L 31.640625 26.171875 
Q 38.671875 25.78125 45.3125 25.78125 
L 56.25 25.78125 
Q 57.03125 31.640625 57.03125 37.109375 
L 51.953125 37.109375 
Q 41.796875 37.109375 34.765625 36.71875 
L 34.765625 43.359375 
Q 42.1875 42.96875 49.21875 42.96875 
z
M 84.765625 76.171875 
Q 84.375 71.09375 84.375 63.671875 
Q 84.375 56.25 84.765625 51.953125 
L 38.28125 51.953125 
Q 38.671875 55.859375 38.671875 63.28125 
Q 38.671875 70.703125 38.28125 76.171875 
L 84.765625 76.171875 
z
M 24.21875 51.953125 
Q 23.828125 46.875 23.828125 39.0625 
L 23.828125 10.546875 
L 29.6875 17.1875 
Q 31.640625 13.671875 34.765625 10.9375 
Q 26.171875 4.6875 19.53125 -5.078125 
Q 17.1875 -1.5625 12.890625 0.78125 
Q 16.015625 3.90625 16.40625 7.8125 
L 16.40625 45.3125 
Q 10.9375 45.3125 5.078125 44.921875 
L 5.078125 52.34375 
Q 8.59375 51.953125 11.71875 51.953125 
z
M 77.734375 57.8125 
L 77.734375 69.921875 
L 45.3125 69.921875 
L 45.3125 57.8125 
z
M 15.234375 80.078125 
Q 17.96875 78.125 29.6875 66.796875 
Q 26.953125 64.453125 24.21875 61.328125 
Q 17.96875 68.75 10.546875 74.609375 
Q 13.671875 77.734375 15.234375 80.078125 
z
" id="SimHei-35823"/>
      <path d="M 73.828125 77.734375 
Q 70.3125 73.828125 66.40625 66.796875 
L 75.78125 66.796875 
Q 85.15625 66.796875 91.015625 67.1875 
L 91.015625 60.15625 
Q 84.765625 60.546875 75.78125 60.546875 
L 51.171875 60.546875 
Q 50.390625 56.25 49.21875 51.171875 
L 70.703125 51.171875 
Q 79.296875 51.171875 86.328125 51.5625 
L 86.328125 44.53125 
Q 79.296875 44.921875 70.3125 44.921875 
L 47.65625 44.921875 
Q 46.484375 41.40625 44.53125 36.328125 
L 80.078125 36.328125 
Q 88.671875 36.328125 94.140625 36.71875 
L 94.140625 29.6875 
Q 89.0625 30.078125 80.46875 30.078125 
L 41.40625 30.078125 
Q 37.890625 24.21875 35.15625 20.3125 
Q 41.40625 19.921875 48.4375 19.921875 
L 70.703125 19.921875 
Q 77.734375 19.921875 83.59375 20.3125 
L 83.59375 13.28125 
Q 77.734375 13.671875 71.484375 13.671875 
L 61.328125 13.671875 
L 61.328125 -0.78125 
L 78.125 -0.78125 
Q 81.25 -0.78125 92.1875 -0.390625 
L 92.1875 -7.8125 
Q 82.421875 -7.421875 78.515625 -7.421875 
L 32.8125 -7.421875 
Q 26.5625 -7.421875 21.875 -7.8125 
L 21.875 -0.390625 
Q 27.734375 -0.78125 33.203125 -0.78125 
L 53.515625 -0.78125 
L 53.515625 13.671875 
L 48.4375 13.671875 
Q 41.015625 13.671875 33.984375 13.28125 
L 33.984375 18.75 
Q 30.078125 13.671875 23.234375 7.421875 
Q 16.40625 1.171875 9.765625 -3.90625 
Q 6.640625 -0.390625 3.125 2.34375 
Q 11.71875 7.421875 19.71875 14.453125 
Q 27.734375 21.484375 32.8125 30.078125 
L 20.703125 30.078125 
Q 11.71875 30.078125 5.859375 29.6875 
L 5.859375 36.71875 
Q 11.71875 36.328125 21.09375 36.328125 
L 36.328125 36.328125 
Q 38.28125 40.234375 39.84375 44.921875 
L 26.953125 44.921875 
Q 21.484375 44.921875 15.625 44.53125 
L 15.625 51.5625 
Q 23.4375 51.171875 26.5625 51.171875 
L 41.40625 51.171875 
Q 42.578125 55.859375 43.359375 60.546875 
L 23.4375 60.546875 
Q 17.1875 60.546875 10.15625 60.15625 
L 10.15625 67.1875 
Q 16.015625 66.796875 22.265625 66.796875 
L 35.546875 66.796875 
Q 32.421875 73.046875 28.90625 77.34375 
Q 31.640625 78.90625 35.15625 81.640625 
Q 38.28125 77.734375 42.578125 71.09375 
Q 39.453125 69.53125 36.328125 66.796875 
L 58.59375 66.796875 
Q 62.5 73.4375 64.84375 82.03125 
Q 68.75 79.6875 73.828125 77.734375 
z
" id="SimHei-24046"/>
     </defs>
     <use xlink:href="#SimHei-39044"/>
     <use x="100" xlink:href="#SimHei-27979"/>
     <use x="200" xlink:href="#SimHei-35823"/>
     <use x="300" xlink:href="#SimHei-24046"/>
    </g>
   </g>
   <g id="legend_1">
    <g id="patch_7">
     <path d="M 1541 90.37 
L 1613 90.37 
Q 1615 90.37 1615 88.37 
L 1615 76.12 
Q 1615 74.12 1613 74.12 
L 1541 74.12 
Q 1539 74.12 1539 76.12 
L 1539 88.37 
Q 1539 90.37 1541 90.37 
z
" style="fill:#ffffff;opacity:0.8;stroke:#cccccc;stroke-linejoin:miter;"/>
    </g>
    <g id="line2d_16">
     <path d="M 1543 81.62 
L 1563 81.62 
" style="fill:none;stroke:#1f77b4;stroke-linecap:square;stroke-width:1.5;"/>
    </g>
    <g id="line2d_17"/>
    <g id="text_16">
     <!-- residual -->
     <g transform="translate(1571 85.12)scale(0.1 -0.1)">
      <defs>
       <path d="M 39.0625 37.890625 
Q 31.640625 39.0625 26.5625 35.734375 
Q 21.484375 32.421875 17.96875 24.21875 
L 17.96875 1.953125 
L 10.15625 1.953125 
L 10.15625 45.703125 
L 17.96875 45.703125 
L 17.96875 34.375 
Q 21.484375 40.625 26.75 43.546875 
Q 32.03125 46.484375 39.0625 46.484375 
z
" id="SimHei-114"/>
       <path d="M 44.53125 16.796875 
Q 43.75 9.765625 38.28125 5.46875 
Q 32.8125 1.171875 25.390625 1.171875 
Q 16.015625 1.171875 9.953125 7.21875 
Q 3.90625 13.28125 3.90625 23.828125 
Q 3.90625 34.375 9.953125 40.421875 
Q 16.015625 46.484375 25.390625 46.484375 
Q 33.59375 46.484375 38.859375 41.203125 
Q 44.140625 35.9375 44.140625 23.828125 
L 12.5 23.828125 
Q 12.5 15.234375 16.203125 11.71875 
Q 19.921875 8.203125 25.390625 8.203125 
Q 29.6875 8.203125 32.421875 10.34375 
Q 35.15625 12.5 35.9375 16.796875 
z
M 35.15625 30.078125 
Q 34.375 35.546875 31.640625 37.6875 
Q 28.90625 39.84375 24.609375 39.84375 
Q 20.703125 39.84375 17.578125 37.6875 
Q 14.453125 35.546875 12.890625 30.078125 
z
" id="SimHei-101"/>
       <path d="M 42.96875 14.0625 
Q 42.96875 7.8125 38.078125 4.484375 
Q 33.203125 1.171875 25.78125 1.171875 
Q 16.40625 1.171875 11.328125 4.875 
Q 6.25 8.59375 6.25 15.625 
L 14.0625 15.625 
Q 14.0625 10.9375 17.375 9.375 
Q 20.703125 7.8125 25.390625 7.8125 
Q 30.078125 7.8125 32.421875 9.5625 
Q 34.765625 11.328125 34.765625 14.0625 
Q 34.765625 16.015625 32.8125 17.96875 
Q 30.859375 19.921875 23.046875 21.09375 
Q 14.0625 22.265625 10.734375 25.578125 
Q 7.421875 28.90625 7.421875 34.375 
Q 7.421875 39.0625 11.90625 42.765625 
Q 16.40625 46.484375 25 46.484375 
Q 32.8125 46.484375 37.296875 42.96875 
Q 41.796875 39.453125 41.796875 33.59375 
L 33.984375 33.59375 
Q 33.984375 37.109375 31.4375 38.46875 
Q 28.90625 39.84375 25 39.84375 
Q 19.921875 39.84375 17.765625 38.078125 
Q 15.625 36.328125 15.625 33.984375 
Q 15.625 31.25 17.578125 29.6875 
Q 19.53125 28.125 25.78125 27.34375 
Q 35.9375 25.78125 39.453125 22.453125 
Q 42.96875 19.140625 42.96875 14.0625 
z
" id="SimHei-115"/>
       <path d="M 28.125 58.203125 
L 20.3125 58.203125 
L 20.3125 68.359375 
L 28.125 68.359375 
z
M 28.125 1.953125 
L 20.3125 1.953125 
L 20.3125 45.703125 
L 28.125 45.703125 
z
" id="SimHei-105"/>
       <path d="M 42.96875 1.953125 
L 35.15625 1.953125 
L 35.15625 7.8125 
Q 32.8125 4.296875 29.6875 2.734375 
Q 26.5625 1.171875 22.265625 1.171875 
Q 14.453125 1.171875 8.984375 6.828125 
Q 3.515625 12.5 3.515625 23.828125 
Q 3.515625 35.15625 8.984375 41.015625 
Q 14.453125 46.875 22.265625 46.875 
Q 26.5625 46.875 29.6875 45.109375 
Q 32.8125 43.359375 35.15625 39.84375 
L 35.15625 68.75 
L 42.96875 68.75 
z
M 35.15625 23.828125 
Q 35.15625 31.25 31.828125 35.546875 
Q 28.515625 39.84375 23.828125 39.84375 
Q 17.96875 39.84375 15.03125 35.546875 
Q 12.109375 31.25 12.109375 23.828125 
Q 12.109375 16.40625 15.03125 12.296875 
Q 17.96875 8.203125 23.828125 8.203125 
Q 28.515625 8.203125 31.828125 12.296875 
Q 35.15625 16.40625 35.15625 23.828125 
z
" id="SimHei-100"/>
       <path d="M 43.75 1.953125 
L 35.9375 1.953125 
L 35.9375 10.15625 
Q 32.8125 5.859375 29.09375 3.515625 
Q 25.390625 1.171875 19.53125 1.171875 
Q 12.5 1.171875 8.984375 5.078125 
Q 5.46875 8.984375 5.46875 14.84375 
L 5.46875 45.703125 
L 13.28125 45.703125 
L 13.28125 17.578125 
Q 13.28125 12.890625 15.625 10.15625 
Q 17.96875 7.421875 21.875 7.421875 
Q 26.953125 7.421875 31.4375 12.6875 
Q 35.9375 17.96875 35.9375 25.78125 
L 35.9375 45.703125 
L 43.75 45.703125 
z
" id="SimHei-117"/>
       <path d="M 44.921875 1.953125 
L 35.546875 1.953125 
Q 34.765625 2.734375 34.375 4.09375 
Q 33.984375 5.46875 33.984375 7.421875 
Q 31.25 4.296875 27.34375 2.734375 
Q 23.4375 1.171875 19.140625 1.171875 
Q 12.890625 1.171875 8.59375 4.296875 
Q 4.296875 7.421875 4.296875 13.28125 
Q 4.296875 19.140625 8.203125 22.65625 
Q 12.109375 26.171875 20.3125 27.34375 
Q 25.78125 28.125 29.875 29.296875 
Q 33.984375 30.46875 33.984375 32.421875 
Q 33.984375 34.765625 32.21875 37.109375 
Q 30.46875 39.453125 24.609375 39.453125 
Q 19.921875 39.453125 17.765625 37.6875 
Q 15.625 35.9375 14.84375 32.8125 
L 6.25 32.8125 
Q 7.03125 39.0625 11.90625 42.765625 
Q 16.796875 46.484375 24.609375 46.484375 
Q 33.203125 46.484375 37.5 42.578125 
Q 41.796875 38.671875 41.796875 31.640625 
L 41.796875 10.15625 
Q 41.796875 7.8125 42.578125 5.859375 
Q 43.359375 3.90625 44.921875 1.953125 
z
M 33.984375 16.40625 
L 33.984375 24.21875 
Q 31.640625 23.4375 29.484375 22.84375 
Q 27.34375 22.265625 22.265625 21.484375 
Q 16.40625 20.703125 14.640625 18.75 
Q 12.890625 16.796875 12.890625 14.0625 
Q 12.890625 11.71875 14.640625 9.953125 
Q 16.40625 8.203125 19.921875 8.203125 
Q 23.4375 8.203125 27.53125 10.15625 
Q 31.640625 12.109375 33.984375 16.40625 
z
" id="SimHei-97"/>
       <path d="M 28.515625 1.953125 
L 20.703125 1.953125 
L 20.703125 68.75 
L 28.515625 68.75 
z
" id="SimHei-108"/>
      </defs>
      <use xlink:href="#SimHei-114"/>
      <use x="50" xlink:href="#SimHei-101"/>
      <use x="100" xlink:href="#SimHei-115"/>
      <use x="150" xlink:href="#SimHei-105"/>
      <use x="200" xlink:href="#SimHei-100"/>
      <use x="250" xlink:href="#SimHei-117"/>
      <use x="300" xlink:href="#SimHei-97"/>
      <use x="350" xlink:href="#SimHei-108"/>
     </g>
    </g>
   </g>
  </g>
 </g>
 <defs>
  <clipPath id="pf693b1e35e">
   <rect height="443.52" width="1395" x="225" y="69.12"/>
  </clipPath>
 </defs>
</svg>
