<?xml version="1.0" encoding="utf-8" standalone="no"?>
<!DOCTYPE svg PUBLIC "-//W3C//DTD SVG 1.1//EN"
  "http://www.w3.org/Graphics/SVG/1.1/DTD/svg11.dtd">
<!-- Created with matplotlib (https://matplotlib.org/) -->
<svg height="345.6pt" version="1.1" viewBox="0 0 460.8 345.6" width="460.8pt" xmlns="http://www.w3.org/2000/svg" xmlns:xlink="http://www.w3.org/1999/xlink">
 <metadata>
  <rdf:RDF xmlns:cc="http://creativecommons.org/ns#" xmlns:dc="http://purl.org/dc/elements/1.1/" xmlns:rdf="http://www.w3.org/1999/02/22-rdf-syntax-ns#">
   <cc:Work>
    <dc:type rdf:resource="http://purl.org/dc/dcmitype/StillImage"/>
    <dc:date>2022-10-05T21:56:01.558170</dc:date>
    <dc:format>image/svg+xml</dc:format>
    <dc:creator>
     <cc:Agent>
      <dc:title>Matplotlib v3.3.4, https://matplotlib.org/</dc:title>
     </cc:Agent>
    </dc:creator>
   </cc:Work>
  </rdf:RDF>
 </metadata>
 <defs>
  <style type="text/css">*{stroke-linecap:butt;stroke-linejoin:round;}</style>
 </defs>
 <g id="figure_1">
  <g id="patch_1">
   <path d="M 0 345.6 
L 460.8 345.6 
L 460.8 0 
L 0 0 
z
" style="fill:#ffffff;"/>
  </g>
  <g id="axes_1">
   <g id="patch_2">
    <path d="M 57.6 307.584 
L 414.72 307.584 
L 414.72 41.472 
L 57.6 41.472 
z
" style="fill:#ffffff;"/>
   </g>
   <g id="matplotlib.axis_1">
    <g id="xtick_1">
     <g id="line2d_1">
      <defs>
       <path d="M 0 0 
L 0 3.5 
" id="m645caa3850" style="stroke:#000000;stroke-width:0.8;"/>
      </defs>
      <g>
       <use style="stroke:#000000;stroke-width:0.8;" x="73.832727" xlink:href="#m645caa3850" y="307.584"/>
      </g>
     </g>
     <g id="text_1">
      <!-- 0 -->
      <g transform="translate(70.651477 322.182437)scale(0.1 -0.1)">
       <defs>
        <path d="M 31.78125 66.40625 
Q 24.171875 66.40625 20.328125 58.90625 
Q 16.5 51.421875 16.5 36.375 
Q 16.5 21.390625 20.328125 13.890625 
Q 24.171875 6.390625 31.78125 6.390625 
Q 39.453125 6.390625 43.28125 13.890625 
Q 47.125 21.390625 47.125 36.375 
Q 47.125 51.421875 43.28125 58.90625 
Q 39.453125 66.40625 31.78125 66.40625 
z
M 31.78125 74.21875 
Q 44.046875 74.21875 50.515625 64.515625 
Q 56.984375 54.828125 56.984375 36.375 
Q 56.984375 17.96875 50.515625 8.265625 
Q 44.046875 -1.421875 31.78125 -1.421875 
Q 19.53125 -1.421875 13.0625 8.265625 
Q 6.59375 17.96875 6.59375 36.375 
Q 6.59375 54.828125 13.0625 64.515625 
Q 19.53125 74.21875 31.78125 74.21875 
z
" id="DejaVuSans-48"/>
       </defs>
       <use xlink:href="#DejaVuSans-48"/>
      </g>
     </g>
    </g>
    <g id="xtick_2">
     <g id="line2d_2">
      <g>
       <use style="stroke:#000000;stroke-width:0.8;" x="139.419504" xlink:href="#m645caa3850" y="307.584"/>
      </g>
     </g>
     <g id="text_2">
      <!-- 20 -->
      <g transform="translate(133.057004 322.182437)scale(0.1 -0.1)">
       <defs>
        <path d="M 19.1875 8.296875 
L 53.609375 8.296875 
L 53.609375 0 
L 7.328125 0 
L 7.328125 8.296875 
Q 12.9375 14.109375 22.625 23.890625 
Q 32.328125 33.6875 34.8125 36.53125 
Q 39.546875 41.84375 41.421875 45.53125 
Q 43.3125 49.21875 43.3125 52.78125 
Q 43.3125 58.59375 39.234375 62.25 
Q 35.15625 65.921875 28.609375 65.921875 
Q 23.96875 65.921875 18.8125 64.3125 
Q 13.671875 62.703125 7.8125 59.421875 
L 7.8125 69.390625 
Q 13.765625 71.78125 18.9375 73 
Q 24.125 74.21875 28.421875 74.21875 
Q 39.75 74.21875 46.484375 68.546875 
Q 53.21875 62.890625 53.21875 53.421875 
Q 53.21875 48.921875 51.53125 44.890625 
Q 49.859375 40.875 45.40625 35.40625 
Q 44.1875 33.984375 37.640625 27.21875 
Q 31.109375 20.453125 19.1875 8.296875 
z
" id="DejaVuSans-50"/>
       </defs>
       <use xlink:href="#DejaVuSans-50"/>
       <use x="63.623047" xlink:href="#DejaVuSans-48"/>
      </g>
     </g>
    </g>
    <g id="xtick_3">
     <g id="line2d_3">
      <g>
       <use style="stroke:#000000;stroke-width:0.8;" x="205.006281" xlink:href="#m645caa3850" y="307.584"/>
      </g>
     </g>
     <g id="text_3">
      <!-- 40 -->
      <g transform="translate(198.643781 322.182437)scale(0.1 -0.1)">
       <defs>
        <path d="M 37.796875 64.3125 
L 12.890625 25.390625 
L 37.796875 25.390625 
z
M 35.203125 72.90625 
L 47.609375 72.90625 
L 47.609375 25.390625 
L 58.015625 25.390625 
L 58.015625 17.1875 
L 47.609375 17.1875 
L 47.609375 0 
L 37.796875 0 
L 37.796875 17.1875 
L 4.890625 17.1875 
L 4.890625 26.703125 
z
" id="DejaVuSans-52"/>
       </defs>
       <use xlink:href="#DejaVuSans-52"/>
       <use x="63.623047" xlink:href="#DejaVuSans-48"/>
      </g>
     </g>
    </g>
    <g id="xtick_4">
     <g id="line2d_4">
      <g>
       <use style="stroke:#000000;stroke-width:0.8;" x="270.593058" xlink:href="#m645caa3850" y="307.584"/>
      </g>
     </g>
     <g id="text_4">
      <!-- 60 -->
      <g transform="translate(264.230558 322.182437)scale(0.1 -0.1)">
       <defs>
        <path d="M 33.015625 40.375 
Q 26.375 40.375 22.484375 35.828125 
Q 18.609375 31.296875 18.609375 23.390625 
Q 18.609375 15.53125 22.484375 10.953125 
Q 26.375 6.390625 33.015625 6.390625 
Q 39.65625 6.390625 43.53125 10.953125 
Q 47.40625 15.53125 47.40625 23.390625 
Q 47.40625 31.296875 43.53125 35.828125 
Q 39.65625 40.375 33.015625 40.375 
z
M 52.59375 71.296875 
L 52.59375 62.3125 
Q 48.875 64.0625 45.09375 64.984375 
Q 41.3125 65.921875 37.59375 65.921875 
Q 27.828125 65.921875 22.671875 59.328125 
Q 17.53125 52.734375 16.796875 39.40625 
Q 19.671875 43.65625 24.015625 45.921875 
Q 28.375 48.1875 33.59375 48.1875 
Q 44.578125 48.1875 50.953125 41.515625 
Q 57.328125 34.859375 57.328125 23.390625 
Q 57.328125 12.15625 50.6875 5.359375 
Q 44.046875 -1.421875 33.015625 -1.421875 
Q 20.359375 -1.421875 13.671875 8.265625 
Q 6.984375 17.96875 6.984375 36.375 
Q 6.984375 53.65625 15.1875 63.9375 
Q 23.390625 74.21875 37.203125 74.21875 
Q 40.921875 74.21875 44.703125 73.484375 
Q 48.484375 72.75 52.59375 71.296875 
z
" id="DejaVuSans-54"/>
       </defs>
       <use xlink:href="#DejaVuSans-54"/>
       <use x="63.623047" xlink:href="#DejaVuSans-48"/>
      </g>
     </g>
    </g>
    <g id="xtick_5">
     <g id="line2d_5">
      <g>
       <use style="stroke:#000000;stroke-width:0.8;" x="336.179835" xlink:href="#m645caa3850" y="307.584"/>
      </g>
     </g>
     <g id="text_5">
      <!-- 80 -->
      <g transform="translate(329.817335 322.182437)scale(0.1 -0.1)">
       <defs>
        <path d="M 31.78125 34.625 
Q 24.75 34.625 20.71875 30.859375 
Q 16.703125 27.09375 16.703125 20.515625 
Q 16.703125 13.921875 20.71875 10.15625 
Q 24.75 6.390625 31.78125 6.390625 
Q 38.8125 6.390625 42.859375 10.171875 
Q 46.921875 13.96875 46.921875 20.515625 
Q 46.921875 27.09375 42.890625 30.859375 
Q 38.875 34.625 31.78125 34.625 
z
M 21.921875 38.8125 
Q 15.578125 40.375 12.03125 44.71875 
Q 8.5 49.078125 8.5 55.328125 
Q 8.5 64.0625 14.71875 69.140625 
Q 20.953125 74.21875 31.78125 74.21875 
Q 42.671875 74.21875 48.875 69.140625 
Q 55.078125 64.0625 55.078125 55.328125 
Q 55.078125 49.078125 51.53125 44.71875 
Q 48 40.375 41.703125 38.8125 
Q 48.828125 37.15625 52.796875 32.3125 
Q 56.78125 27.484375 56.78125 20.515625 
Q 56.78125 9.90625 50.3125 4.234375 
Q 43.84375 -1.421875 31.78125 -1.421875 
Q 19.734375 -1.421875 13.25 4.234375 
Q 6.78125 9.90625 6.78125 20.515625 
Q 6.78125 27.484375 10.78125 32.3125 
Q 14.796875 37.15625 21.921875 38.8125 
z
M 18.3125 54.390625 
Q 18.3125 48.734375 21.84375 45.5625 
Q 25.390625 42.390625 31.78125 42.390625 
Q 38.140625 42.390625 41.71875 45.5625 
Q 45.3125 48.734375 45.3125 54.390625 
Q 45.3125 60.0625 41.71875 63.234375 
Q 38.140625 66.40625 31.78125 66.40625 
Q 25.390625 66.40625 21.84375 63.234375 
Q 18.3125 60.0625 18.3125 54.390625 
z
" id="DejaVuSans-56"/>
       </defs>
       <use xlink:href="#DejaVuSans-56"/>
       <use x="63.623047" xlink:href="#DejaVuSans-48"/>
      </g>
     </g>
    </g>
    <g id="xtick_6">
     <g id="line2d_6">
      <g>
       <use style="stroke:#000000;stroke-width:0.8;" x="401.766612" xlink:href="#m645caa3850" y="307.584"/>
      </g>
     </g>
     <g id="text_6">
      <!-- 100 -->
      <g transform="translate(392.222862 322.182437)scale(0.1 -0.1)">
       <defs>
        <path d="M 12.40625 8.296875 
L 28.515625 8.296875 
L 28.515625 63.921875 
L 10.984375 60.40625 
L 10.984375 69.390625 
L 28.421875 72.90625 
L 38.28125 72.90625 
L 38.28125 8.296875 
L 54.390625 8.296875 
L 54.390625 0 
L 12.40625 0 
z
" id="DejaVuSans-49"/>
       </defs>
       <use xlink:href="#DejaVuSans-49"/>
       <use x="63.623047" xlink:href="#DejaVuSans-48"/>
       <use x="127.246094" xlink:href="#DejaVuSans-48"/>
      </g>
     </g>
    </g>
    <g id="text_7">
     <!-- unit number -->
     <g transform="translate(205.370156 335.860562)scale(0.1 -0.1)">
      <defs>
       <path d="M 8.5 21.578125 
L 8.5 54.6875 
L 17.484375 54.6875 
L 17.484375 21.921875 
Q 17.484375 14.15625 20.5 10.265625 
Q 23.53125 6.390625 29.59375 6.390625 
Q 36.859375 6.390625 41.078125 11.03125 
Q 45.3125 15.671875 45.3125 23.6875 
L 45.3125 54.6875 
L 54.296875 54.6875 
L 54.296875 0 
L 45.3125 0 
L 45.3125 8.40625 
Q 42.046875 3.421875 37.71875 1 
Q 33.40625 -1.421875 27.6875 -1.421875 
Q 18.265625 -1.421875 13.375 4.4375 
Q 8.5 10.296875 8.5 21.578125 
z
M 31.109375 56 
z
" id="DejaVuSans-117"/>
       <path d="M 54.890625 33.015625 
L 54.890625 0 
L 45.90625 0 
L 45.90625 32.71875 
Q 45.90625 40.484375 42.875 44.328125 
Q 39.84375 48.1875 33.796875 48.1875 
Q 26.515625 48.1875 22.3125 43.546875 
Q 18.109375 38.921875 18.109375 30.90625 
L 18.109375 0 
L 9.078125 0 
L 9.078125 54.6875 
L 18.109375 54.6875 
L 18.109375 46.1875 
Q 21.34375 51.125 25.703125 53.5625 
Q 30.078125 56 35.796875 56 
Q 45.21875 56 50.046875 50.171875 
Q 54.890625 44.34375 54.890625 33.015625 
z
" id="DejaVuSans-110"/>
       <path d="M 9.421875 54.6875 
L 18.40625 54.6875 
L 18.40625 0 
L 9.421875 0 
z
M 9.421875 75.984375 
L 18.40625 75.984375 
L 18.40625 64.59375 
L 9.421875 64.59375 
z
" id="DejaVuSans-105"/>
       <path d="M 18.3125 70.21875 
L 18.3125 54.6875 
L 36.8125 54.6875 
L 36.8125 47.703125 
L 18.3125 47.703125 
L 18.3125 18.015625 
Q 18.3125 11.328125 20.140625 9.421875 
Q 21.96875 7.515625 27.59375 7.515625 
L 36.8125 7.515625 
L 36.8125 0 
L 27.59375 0 
Q 17.1875 0 13.234375 3.875 
Q 9.28125 7.765625 9.28125 18.015625 
L 9.28125 47.703125 
L 2.6875 47.703125 
L 2.6875 54.6875 
L 9.28125 54.6875 
L 9.28125 70.21875 
z
" id="DejaVuSans-116"/>
       <path id="DejaVuSans-32"/>
       <path d="M 52 44.1875 
Q 55.375 50.25 60.0625 53.125 
Q 64.75 56 71.09375 56 
Q 79.640625 56 84.28125 50.015625 
Q 88.921875 44.046875 88.921875 33.015625 
L 88.921875 0 
L 79.890625 0 
L 79.890625 32.71875 
Q 79.890625 40.578125 77.09375 44.375 
Q 74.3125 48.1875 68.609375 48.1875 
Q 61.625 48.1875 57.5625 43.546875 
Q 53.515625 38.921875 53.515625 30.90625 
L 53.515625 0 
L 44.484375 0 
L 44.484375 32.71875 
Q 44.484375 40.625 41.703125 44.40625 
Q 38.921875 48.1875 33.109375 48.1875 
Q 26.21875 48.1875 22.15625 43.53125 
Q 18.109375 38.875 18.109375 30.90625 
L 18.109375 0 
L 9.078125 0 
L 9.078125 54.6875 
L 18.109375 54.6875 
L 18.109375 46.1875 
Q 21.1875 51.21875 25.484375 53.609375 
Q 29.78125 56 35.6875 56 
Q 41.65625 56 45.828125 52.96875 
Q 50 49.953125 52 44.1875 
z
" id="DejaVuSans-109"/>
       <path d="M 48.6875 27.296875 
Q 48.6875 37.203125 44.609375 42.84375 
Q 40.53125 48.484375 33.40625 48.484375 
Q 26.265625 48.484375 22.1875 42.84375 
Q 18.109375 37.203125 18.109375 27.296875 
Q 18.109375 17.390625 22.1875 11.75 
Q 26.265625 6.109375 33.40625 6.109375 
Q 40.53125 6.109375 44.609375 11.75 
Q 48.6875 17.390625 48.6875 27.296875 
z
M 18.109375 46.390625 
Q 20.953125 51.265625 25.265625 53.625 
Q 29.59375 56 35.59375 56 
Q 45.5625 56 51.78125 48.09375 
Q 58.015625 40.1875 58.015625 27.296875 
Q 58.015625 14.40625 51.78125 6.484375 
Q 45.5625 -1.421875 35.59375 -1.421875 
Q 29.59375 -1.421875 25.265625 0.953125 
Q 20.953125 3.328125 18.109375 8.203125 
L 18.109375 0 
L 9.078125 0 
L 9.078125 75.984375 
L 18.109375 75.984375 
z
" id="DejaVuSans-98"/>
       <path d="M 56.203125 29.59375 
L 56.203125 25.203125 
L 14.890625 25.203125 
Q 15.484375 15.921875 20.484375 11.0625 
Q 25.484375 6.203125 34.421875 6.203125 
Q 39.59375 6.203125 44.453125 7.46875 
Q 49.3125 8.734375 54.109375 11.28125 
L 54.109375 2.78125 
Q 49.265625 0.734375 44.1875 -0.34375 
Q 39.109375 -1.421875 33.890625 -1.421875 
Q 20.796875 -1.421875 13.15625 6.1875 
Q 5.515625 13.8125 5.515625 26.8125 
Q 5.515625 40.234375 12.765625 48.109375 
Q 20.015625 56 32.328125 56 
Q 43.359375 56 49.78125 48.890625 
Q 56.203125 41.796875 56.203125 29.59375 
z
M 47.21875 32.234375 
Q 47.125 39.59375 43.09375 43.984375 
Q 39.0625 48.390625 32.421875 48.390625 
Q 24.90625 48.390625 20.390625 44.140625 
Q 15.875 39.890625 15.1875 32.171875 
z
" id="DejaVuSans-101"/>
       <path d="M 41.109375 46.296875 
Q 39.59375 47.171875 37.8125 47.578125 
Q 36.03125 48 33.890625 48 
Q 26.265625 48 22.1875 43.046875 
Q 18.109375 38.09375 18.109375 28.8125 
L 18.109375 0 
L 9.078125 0 
L 9.078125 54.6875 
L 18.109375 54.6875 
L 18.109375 46.1875 
Q 20.953125 51.171875 25.484375 53.578125 
Q 30.03125 56 36.53125 56 
Q 37.453125 56 38.578125 55.875 
Q 39.703125 55.765625 41.0625 55.515625 
z
" id="DejaVuSans-114"/>
      </defs>
      <use xlink:href="#DejaVuSans-117"/>
      <use x="63.378906" xlink:href="#DejaVuSans-110"/>
      <use x="126.757812" xlink:href="#DejaVuSans-105"/>
      <use x="154.541016" xlink:href="#DejaVuSans-116"/>
      <use x="193.75" xlink:href="#DejaVuSans-32"/>
      <use x="225.537109" xlink:href="#DejaVuSans-110"/>
      <use x="288.916016" xlink:href="#DejaVuSans-117"/>
      <use x="352.294922" xlink:href="#DejaVuSans-109"/>
      <use x="449.707031" xlink:href="#DejaVuSans-98"/>
      <use x="513.183594" xlink:href="#DejaVuSans-101"/>
      <use x="574.707031" xlink:href="#DejaVuSans-114"/>
     </g>
    </g>
   </g>
   <g id="matplotlib.axis_2">
    <g id="ytick_1">
     <g id="line2d_7">
      <defs>
       <path d="M 0 0 
L -3.5 0 
" id="md221b5d31f" style="stroke:#000000;stroke-width:0.8;"/>
      </defs>
      <g>
       <use style="stroke:#000000;stroke-width:0.8;" x="57.6" xlink:href="#md221b5d31f" y="306.166833"/>
      </g>
     </g>
     <g id="text_8">
      <!-- 0 -->
      <g transform="translate(44.2375 309.966052)scale(0.1 -0.1)">
       <use xlink:href="#DejaVuSans-48"/>
      </g>
     </g>
    </g>
    <g id="ytick_2">
     <g id="line2d_8">
      <g>
       <use style="stroke:#000000;stroke-width:0.8;" x="57.6" xlink:href="#md221b5d31f" y="271.325615"/>
      </g>
     </g>
     <g id="text_9">
      <!-- 20 -->
      <g transform="translate(37.875 275.124834)scale(0.1 -0.1)">
       <use xlink:href="#DejaVuSans-50"/>
       <use x="63.623047" xlink:href="#DejaVuSans-48"/>
      </g>
     </g>
    </g>
    <g id="ytick_3">
     <g id="line2d_9">
      <g>
       <use style="stroke:#000000;stroke-width:0.8;" x="57.6" xlink:href="#md221b5d31f" y="236.484397"/>
      </g>
     </g>
     <g id="text_10">
      <!-- 40 -->
      <g transform="translate(37.875 240.283615)scale(0.1 -0.1)">
       <use xlink:href="#DejaVuSans-52"/>
       <use x="63.623047" xlink:href="#DejaVuSans-48"/>
      </g>
     </g>
    </g>
    <g id="ytick_4">
     <g id="line2d_10">
      <g>
       <use style="stroke:#000000;stroke-width:0.8;" x="57.6" xlink:href="#md221b5d31f" y="201.643178"/>
      </g>
     </g>
     <g id="text_11">
      <!-- 60 -->
      <g transform="translate(37.875 205.442397)scale(0.1 -0.1)">
       <use xlink:href="#DejaVuSans-54"/>
       <use x="63.623047" xlink:href="#DejaVuSans-48"/>
      </g>
     </g>
    </g>
    <g id="ytick_5">
     <g id="line2d_11">
      <g>
       <use style="stroke:#000000;stroke-width:0.8;" x="57.6" xlink:href="#md221b5d31f" y="166.80196"/>
      </g>
     </g>
     <g id="text_12">
      <!-- 80 -->
      <g transform="translate(37.875 170.601179)scale(0.1 -0.1)">
       <use xlink:href="#DejaVuSans-56"/>
       <use x="63.623047" xlink:href="#DejaVuSans-48"/>
      </g>
     </g>
    </g>
    <g id="ytick_6">
     <g id="line2d_12">
      <g>
       <use style="stroke:#000000;stroke-width:0.8;" x="57.6" xlink:href="#md221b5d31f" y="131.960741"/>
      </g>
     </g>
     <g id="text_13">
      <!-- 100 -->
      <g transform="translate(31.5125 135.75996)scale(0.1 -0.1)">
       <use xlink:href="#DejaVuSans-49"/>
       <use x="63.623047" xlink:href="#DejaVuSans-48"/>
       <use x="127.246094" xlink:href="#DejaVuSans-48"/>
      </g>
     </g>
    </g>
    <g id="ytick_7">
     <g id="line2d_13">
      <g>
       <use style="stroke:#000000;stroke-width:0.8;" x="57.6" xlink:href="#md221b5d31f" y="97.119523"/>
      </g>
     </g>
     <g id="text_14">
      <!-- 120 -->
      <g transform="translate(31.5125 100.918742)scale(0.1 -0.1)">
       <use xlink:href="#DejaVuSans-49"/>
       <use x="63.623047" xlink:href="#DejaVuSans-50"/>
       <use x="127.246094" xlink:href="#DejaVuSans-48"/>
      </g>
     </g>
    </g>
    <g id="ytick_8">
     <g id="line2d_14">
      <g>
       <use style="stroke:#000000;stroke-width:0.8;" x="57.6" xlink:href="#md221b5d31f" y="62.278305"/>
      </g>
     </g>
     <g id="text_15">
      <!-- 140 -->
      <g transform="translate(31.5125 66.077523)scale(0.1 -0.1)">
       <use xlink:href="#DejaVuSans-49"/>
       <use x="63.623047" xlink:href="#DejaVuSans-52"/>
       <use x="127.246094" xlink:href="#DejaVuSans-48"/>
      </g>
     </g>
    </g>
    <g id="text_16">
     <!-- Remaining useful life -->
     <g transform="translate(25.432812 227.038938)rotate(-90)scale(0.1 -0.1)">
      <defs>
       <path d="M 44.390625 34.1875 
Q 47.5625 33.109375 50.5625 29.59375 
Q 53.5625 26.078125 56.59375 19.921875 
L 66.609375 0 
L 56 0 
L 46.6875 18.703125 
Q 43.0625 26.03125 39.671875 28.421875 
Q 36.28125 30.8125 30.421875 30.8125 
L 19.671875 30.8125 
L 19.671875 0 
L 9.8125 0 
L 9.8125 72.90625 
L 32.078125 72.90625 
Q 44.578125 72.90625 50.734375 67.671875 
Q 56.890625 62.453125 56.890625 51.90625 
Q 56.890625 45.015625 53.6875 40.46875 
Q 50.484375 35.9375 44.390625 34.1875 
z
M 19.671875 64.796875 
L 19.671875 38.921875 
L 32.078125 38.921875 
Q 39.203125 38.921875 42.84375 42.21875 
Q 46.484375 45.515625 46.484375 51.90625 
Q 46.484375 58.296875 42.84375 61.546875 
Q 39.203125 64.796875 32.078125 64.796875 
z
" id="DejaVuSans-82"/>
       <path d="M 34.28125 27.484375 
Q 23.390625 27.484375 19.1875 25 
Q 14.984375 22.515625 14.984375 16.5 
Q 14.984375 11.71875 18.140625 8.90625 
Q 21.296875 6.109375 26.703125 6.109375 
Q 34.1875 6.109375 38.703125 11.40625 
Q 43.21875 16.703125 43.21875 25.484375 
L 43.21875 27.484375 
z
M 52.203125 31.203125 
L 52.203125 0 
L 43.21875 0 
L 43.21875 8.296875 
Q 40.140625 3.328125 35.546875 0.953125 
Q 30.953125 -1.421875 24.3125 -1.421875 
Q 15.921875 -1.421875 10.953125 3.296875 
Q 6 8.015625 6 15.921875 
Q 6 25.140625 12.171875 29.828125 
Q 18.359375 34.515625 30.609375 34.515625 
L 43.21875 34.515625 
L 43.21875 35.40625 
Q 43.21875 41.609375 39.140625 45 
Q 35.0625 48.390625 27.6875 48.390625 
Q 23 48.390625 18.546875 47.265625 
Q 14.109375 46.140625 10.015625 43.890625 
L 10.015625 52.203125 
Q 14.9375 54.109375 19.578125 55.046875 
Q 24.21875 56 28.609375 56 
Q 40.484375 56 46.34375 49.84375 
Q 52.203125 43.703125 52.203125 31.203125 
z
" id="DejaVuSans-97"/>
       <path d="M 45.40625 27.984375 
Q 45.40625 37.75 41.375 43.109375 
Q 37.359375 48.484375 30.078125 48.484375 
Q 22.859375 48.484375 18.828125 43.109375 
Q 14.796875 37.75 14.796875 27.984375 
Q 14.796875 18.265625 18.828125 12.890625 
Q 22.859375 7.515625 30.078125 7.515625 
Q 37.359375 7.515625 41.375 12.890625 
Q 45.40625 18.265625 45.40625 27.984375 
z
M 54.390625 6.78125 
Q 54.390625 -7.171875 48.1875 -13.984375 
Q 42 -20.796875 29.203125 -20.796875 
Q 24.46875 -20.796875 20.265625 -20.09375 
Q 16.0625 -19.390625 12.109375 -17.921875 
L 12.109375 -9.1875 
Q 16.0625 -11.328125 19.921875 -12.34375 
Q 23.78125 -13.375 27.78125 -13.375 
Q 36.625 -13.375 41.015625 -8.765625 
Q 45.40625 -4.15625 45.40625 5.171875 
L 45.40625 9.625 
Q 42.625 4.78125 38.28125 2.390625 
Q 33.9375 0 27.875 0 
Q 17.828125 0 11.671875 7.65625 
Q 5.515625 15.328125 5.515625 27.984375 
Q 5.515625 40.671875 11.671875 48.328125 
Q 17.828125 56 27.875 56 
Q 33.9375 56 38.28125 53.609375 
Q 42.625 51.21875 45.40625 46.390625 
L 45.40625 54.6875 
L 54.390625 54.6875 
z
" id="DejaVuSans-103"/>
       <path d="M 44.28125 53.078125 
L 44.28125 44.578125 
Q 40.484375 46.53125 36.375 47.5 
Q 32.28125 48.484375 27.875 48.484375 
Q 21.1875 48.484375 17.84375 46.4375 
Q 14.5 44.390625 14.5 40.28125 
Q 14.5 37.15625 16.890625 35.375 
Q 19.28125 33.59375 26.515625 31.984375 
L 29.59375 31.296875 
Q 39.15625 29.25 43.1875 25.515625 
Q 47.21875 21.78125 47.21875 15.09375 
Q 47.21875 7.46875 41.1875 3.015625 
Q 35.15625 -1.421875 24.609375 -1.421875 
Q 20.21875 -1.421875 15.453125 -0.5625 
Q 10.6875 0.296875 5.421875 2 
L 5.421875 11.28125 
Q 10.40625 8.6875 15.234375 7.390625 
Q 20.0625 6.109375 24.8125 6.109375 
Q 31.15625 6.109375 34.5625 8.28125 
Q 37.984375 10.453125 37.984375 14.40625 
Q 37.984375 18.0625 35.515625 20.015625 
Q 33.0625 21.96875 24.703125 23.78125 
L 21.578125 24.515625 
Q 13.234375 26.265625 9.515625 29.90625 
Q 5.8125 33.546875 5.8125 39.890625 
Q 5.8125 47.609375 11.28125 51.796875 
Q 16.75 56 26.8125 56 
Q 31.78125 56 36.171875 55.265625 
Q 40.578125 54.546875 44.28125 53.078125 
z
" id="DejaVuSans-115"/>
       <path d="M 37.109375 75.984375 
L 37.109375 68.5 
L 28.515625 68.5 
Q 23.6875 68.5 21.796875 66.546875 
Q 19.921875 64.59375 19.921875 59.515625 
L 19.921875 54.6875 
L 34.71875 54.6875 
L 34.71875 47.703125 
L 19.921875 47.703125 
L 19.921875 0 
L 10.890625 0 
L 10.890625 47.703125 
L 2.296875 47.703125 
L 2.296875 54.6875 
L 10.890625 54.6875 
L 10.890625 58.5 
Q 10.890625 67.625 15.140625 71.796875 
Q 19.390625 75.984375 28.609375 75.984375 
z
" id="DejaVuSans-102"/>
       <path d="M 9.421875 75.984375 
L 18.40625 75.984375 
L 18.40625 0 
L 9.421875 0 
z
" id="DejaVuSans-108"/>
      </defs>
      <use xlink:href="#DejaVuSans-82"/>
      <use x="64.982422" xlink:href="#DejaVuSans-101"/>
      <use x="126.505859" xlink:href="#DejaVuSans-109"/>
      <use x="223.917969" xlink:href="#DejaVuSans-97"/>
      <use x="285.197266" xlink:href="#DejaVuSans-105"/>
      <use x="312.980469" xlink:href="#DejaVuSans-110"/>
      <use x="376.359375" xlink:href="#DejaVuSans-105"/>
      <use x="404.142578" xlink:href="#DejaVuSans-110"/>
      <use x="467.521484" xlink:href="#DejaVuSans-103"/>
      <use x="530.998047" xlink:href="#DejaVuSans-32"/>
      <use x="562.785156" xlink:href="#DejaVuSans-117"/>
      <use x="626.164062" xlink:href="#DejaVuSans-115"/>
      <use x="678.263672" xlink:href="#DejaVuSans-101"/>
      <use x="739.787109" xlink:href="#DejaVuSans-102"/>
      <use x="774.992188" xlink:href="#DejaVuSans-117"/>
      <use x="838.371094" xlink:href="#DejaVuSans-108"/>
      <use x="866.154297" xlink:href="#DejaVuSans-32"/>
      <use x="897.941406" xlink:href="#DejaVuSans-108"/>
      <use x="925.724609" xlink:href="#DejaVuSans-105"/>
      <use x="953.507812" xlink:href="#DejaVuSans-102"/>
      <use x="988.712891" xlink:href="#DejaVuSans-101"/>
     </g>
    </g>
   </g>
   <g id="line2d_15">
    <path clip-path="url(#p1de7669af2)" d="M 73.832727 295.488 
L 77.112066 274.060651 
L 80.391405 270.768156 
L 83.670744 293.200093 
L 86.950083 290.557968 
L 90.229421 273.497384 
L 93.50876 281.330852 
L 96.788099 290.116645 
L 100.067438 278.351927 
L 103.346777 283.729089 
L 106.626116 260.942932 
L 109.905455 187.346665 
L 113.184793 261.151979 
L 116.464132 274.780703 
L 119.743471 267.214351 
L 123.02281 257.453003 
L 126.302149 280.99986 
L 129.581488 229.307106 
L 132.860826 206.886782 
L 136.140165 247.964578 
L 139.419504 251.199005 
L 142.698843 219.679316 
L 145.978182 234.49264 
L 149.257521 194.001338 
L 152.53686 252.935259 
L 155.816198 248.969167 
L 159.095537 220.068376 
L 162.374876 249.875038 
L 165.654215 213.024643 
L 168.933554 213.80857 
L 172.212893 184.971655 
L 175.492231 217.937255 
L 178.77157 214.795738 
L 182.050909 212.159419 
L 185.330248 223.331837 
L 188.609587 182.863762 
L 191.888926 219.197345 
L 195.168264 191.88183 
L 198.447603 151.843463 
L 201.726942 109.14555 
L 205.006281 105.400119 
L 208.28562 198.071953 
L 211.564959 194.012951 
L 214.844298 119.597916 
L 218.123636 126.275816 
L 221.402975 170.982906 
L 224.682314 157.644526 
L 227.961653 99.924241 
L 231.240992 115.637631 
L 234.520331 221.148454 
L 237.799669 116.398331 
L 241.079008 163.94498 
L 244.358347 165.315401 
L 247.637686 127.448804 
L 250.917025 126.270009 
L 254.196364 124.185343 
L 257.475702 122.936866 
L 260.755041 124.39439 
L 264.03438 115.167274 
L 267.313719 144.126134 
L 270.593058 142.529244 
L 273.872397 122.048415 
L 277.151736 139.45741 
L 280.431074 178.224073 
L 283.710413 96.184617 
L 286.989752 106.311798 
L 290.269091 113.274235 
L 293.54843 129.196671 
L 296.827769 134.626095 
L 300.107107 90.604215 
L 303.386446 126.508091 
L 306.665785 118.552679 
L 309.945124 123.865965 
L 313.224463 107.345421 
L 316.503802 104.488441 
L 319.78314 97.920871 
L 323.062479 101.857929 
L 326.341818 172.939821 
L 329.621157 103.118019 
L 332.900496 96.55045 
L 336.179835 110.132718 
L 339.459174 141.193664 
L 342.738512 113.959445 
L 346.017851 94.883878 
L 349.29719 114.214948 
L 352.576529 110.138525 
L 355.855868 113.007119 
L 359.135207 107.658992 
L 362.414545 161.761597 
L 365.693884 136.925615 
L 368.973223 94.37868 
L 372.252562 106.613755 
L 375.531901 98.118305 
L 378.81124 112.182543 
L 382.090579 112.368363 
L 385.369917 107.444137 
L 388.649256 117.240327 
L 391.928595 91.486859 
L 395.207934 101.091422 
L 398.487273 103.669672 
" style="fill:none;stroke:#1f77b4;stroke-linecap:square;stroke-width:1.5;"/>
    <defs>
     <path d="M 0 1.5 
C 0.397805 1.5 0.77937 1.341951 1.06066 1.06066 
C 1.341951 0.77937 1.5 0.397805 1.5 0 
C 1.5 -0.397805 1.341951 -0.77937 1.06066 -1.06066 
C 0.77937 -1.341951 0.397805 -1.5 0 -1.5 
C -0.397805 -1.5 -0.77937 -1.341951 -1.06066 -1.06066 
C -1.341951 -0.77937 -1.5 -0.397805 -1.5 0 
C -1.5 0.397805 -1.341951 0.77937 -1.06066 1.06066 
C -0.77937 1.341951 -0.397805 1.5 0 1.5 
z
" id="m6febf9a216" style="stroke:#1f77b4;"/>
    </defs>
    <g clip-path="url(#p1de7669af2)">
     <use style="fill:#1f77b4;stroke:#1f77b4;" x="73.832727" xlink:href="#m6febf9a216" y="295.488"/>
     <use style="fill:#1f77b4;stroke:#1f77b4;" x="77.112066" xlink:href="#m6febf9a216" y="274.060651"/>
     <use style="fill:#1f77b4;stroke:#1f77b4;" x="80.391405" xlink:href="#m6febf9a216" y="270.768156"/>
     <use style="fill:#1f77b4;stroke:#1f77b4;" x="83.670744" xlink:href="#m6febf9a216" y="293.200093"/>
     <use style="fill:#1f77b4;stroke:#1f77b4;" x="86.950083" xlink:href="#m6febf9a216" y="290.557968"/>
     <use style="fill:#1f77b4;stroke:#1f77b4;" x="90.229421" xlink:href="#m6febf9a216" y="273.497384"/>
     <use style="fill:#1f77b4;stroke:#1f77b4;" x="93.50876" xlink:href="#m6febf9a216" y="281.330852"/>
     <use style="fill:#1f77b4;stroke:#1f77b4;" x="96.788099" xlink:href="#m6febf9a216" y="290.116645"/>
     <use style="fill:#1f77b4;stroke:#1f77b4;" x="100.067438" xlink:href="#m6febf9a216" y="278.351927"/>
     <use style="fill:#1f77b4;stroke:#1f77b4;" x="103.346777" xlink:href="#m6febf9a216" y="283.729089"/>
     <use style="fill:#1f77b4;stroke:#1f77b4;" x="106.626116" xlink:href="#m6febf9a216" y="260.942932"/>
     <use style="fill:#1f77b4;stroke:#1f77b4;" x="109.905455" xlink:href="#m6febf9a216" y="187.346665"/>
     <use style="fill:#1f77b4;stroke:#1f77b4;" x="113.184793" xlink:href="#m6febf9a216" y="261.151979"/>
     <use style="fill:#1f77b4;stroke:#1f77b4;" x="116.464132" xlink:href="#m6febf9a216" y="274.780703"/>
     <use style="fill:#1f77b4;stroke:#1f77b4;" x="119.743471" xlink:href="#m6febf9a216" y="267.214351"/>
     <use style="fill:#1f77b4;stroke:#1f77b4;" x="123.02281" xlink:href="#m6febf9a216" y="257.453003"/>
     <use style="fill:#1f77b4;stroke:#1f77b4;" x="126.302149" xlink:href="#m6febf9a216" y="280.99986"/>
     <use style="fill:#1f77b4;stroke:#1f77b4;" x="129.581488" xlink:href="#m6febf9a216" y="229.307106"/>
     <use style="fill:#1f77b4;stroke:#1f77b4;" x="132.860826" xlink:href="#m6febf9a216" y="206.886782"/>
     <use style="fill:#1f77b4;stroke:#1f77b4;" x="136.140165" xlink:href="#m6febf9a216" y="247.964578"/>
     <use style="fill:#1f77b4;stroke:#1f77b4;" x="139.419504" xlink:href="#m6febf9a216" y="251.199005"/>
     <use style="fill:#1f77b4;stroke:#1f77b4;" x="142.698843" xlink:href="#m6febf9a216" y="219.679316"/>
     <use style="fill:#1f77b4;stroke:#1f77b4;" x="145.978182" xlink:href="#m6febf9a216" y="234.49264"/>
     <use style="fill:#1f77b4;stroke:#1f77b4;" x="149.257521" xlink:href="#m6febf9a216" y="194.001338"/>
     <use style="fill:#1f77b4;stroke:#1f77b4;" x="152.53686" xlink:href="#m6febf9a216" y="252.935259"/>
     <use style="fill:#1f77b4;stroke:#1f77b4;" x="155.816198" xlink:href="#m6febf9a216" y="248.969167"/>
     <use style="fill:#1f77b4;stroke:#1f77b4;" x="159.095537" xlink:href="#m6febf9a216" y="220.068376"/>
     <use style="fill:#1f77b4;stroke:#1f77b4;" x="162.374876" xlink:href="#m6febf9a216" y="249.875038"/>
     <use style="fill:#1f77b4;stroke:#1f77b4;" x="165.654215" xlink:href="#m6febf9a216" y="213.024643"/>
     <use style="fill:#1f77b4;stroke:#1f77b4;" x="168.933554" xlink:href="#m6febf9a216" y="213.80857"/>
     <use style="fill:#1f77b4;stroke:#1f77b4;" x="172.212893" xlink:href="#m6febf9a216" y="184.971655"/>
     <use style="fill:#1f77b4;stroke:#1f77b4;" x="175.492231" xlink:href="#m6febf9a216" y="217.937255"/>
     <use style="fill:#1f77b4;stroke:#1f77b4;" x="178.77157" xlink:href="#m6febf9a216" y="214.795738"/>
     <use style="fill:#1f77b4;stroke:#1f77b4;" x="182.050909" xlink:href="#m6febf9a216" y="212.159419"/>
     <use style="fill:#1f77b4;stroke:#1f77b4;" x="185.330248" xlink:href="#m6febf9a216" y="223.331837"/>
     <use style="fill:#1f77b4;stroke:#1f77b4;" x="188.609587" xlink:href="#m6febf9a216" y="182.863762"/>
     <use style="fill:#1f77b4;stroke:#1f77b4;" x="191.888926" xlink:href="#m6febf9a216" y="219.197345"/>
     <use style="fill:#1f77b4;stroke:#1f77b4;" x="195.168264" xlink:href="#m6febf9a216" y="191.88183"/>
     <use style="fill:#1f77b4;stroke:#1f77b4;" x="198.447603" xlink:href="#m6febf9a216" y="151.843463"/>
     <use style="fill:#1f77b4;stroke:#1f77b4;" x="201.726942" xlink:href="#m6febf9a216" y="109.14555"/>
     <use style="fill:#1f77b4;stroke:#1f77b4;" x="205.006281" xlink:href="#m6febf9a216" y="105.400119"/>
     <use style="fill:#1f77b4;stroke:#1f77b4;" x="208.28562" xlink:href="#m6febf9a216" y="198.071953"/>
     <use style="fill:#1f77b4;stroke:#1f77b4;" x="211.564959" xlink:href="#m6febf9a216" y="194.012951"/>
     <use style="fill:#1f77b4;stroke:#1f77b4;" x="214.844298" xlink:href="#m6febf9a216" y="119.597916"/>
     <use style="fill:#1f77b4;stroke:#1f77b4;" x="218.123636" xlink:href="#m6febf9a216" y="126.275816"/>
     <use style="fill:#1f77b4;stroke:#1f77b4;" x="221.402975" xlink:href="#m6febf9a216" y="170.982906"/>
     <use style="fill:#1f77b4;stroke:#1f77b4;" x="224.682314" xlink:href="#m6febf9a216" y="157.644526"/>
     <use style="fill:#1f77b4;stroke:#1f77b4;" x="227.961653" xlink:href="#m6febf9a216" y="99.924241"/>
     <use style="fill:#1f77b4;stroke:#1f77b4;" x="231.240992" xlink:href="#m6febf9a216" y="115.637631"/>
     <use style="fill:#1f77b4;stroke:#1f77b4;" x="234.520331" xlink:href="#m6febf9a216" y="221.148454"/>
     <use style="fill:#1f77b4;stroke:#1f77b4;" x="237.799669" xlink:href="#m6febf9a216" y="116.398331"/>
     <use style="fill:#1f77b4;stroke:#1f77b4;" x="241.079008" xlink:href="#m6febf9a216" y="163.94498"/>
     <use style="fill:#1f77b4;stroke:#1f77b4;" x="244.358347" xlink:href="#m6febf9a216" y="165.315401"/>
     <use style="fill:#1f77b4;stroke:#1f77b4;" x="247.637686" xlink:href="#m6febf9a216" y="127.448804"/>
     <use style="fill:#1f77b4;stroke:#1f77b4;" x="250.917025" xlink:href="#m6febf9a216" y="126.270009"/>
     <use style="fill:#1f77b4;stroke:#1f77b4;" x="254.196364" xlink:href="#m6febf9a216" y="124.185343"/>
     <use style="fill:#1f77b4;stroke:#1f77b4;" x="257.475702" xlink:href="#m6febf9a216" y="122.936866"/>
     <use style="fill:#1f77b4;stroke:#1f77b4;" x="260.755041" xlink:href="#m6febf9a216" y="124.39439"/>
     <use style="fill:#1f77b4;stroke:#1f77b4;" x="264.03438" xlink:href="#m6febf9a216" y="115.167274"/>
     <use style="fill:#1f77b4;stroke:#1f77b4;" x="267.313719" xlink:href="#m6febf9a216" y="144.126134"/>
     <use style="fill:#1f77b4;stroke:#1f77b4;" x="270.593058" xlink:href="#m6febf9a216" y="142.529244"/>
     <use style="fill:#1f77b4;stroke:#1f77b4;" x="273.872397" xlink:href="#m6febf9a216" y="122.048415"/>
     <use style="fill:#1f77b4;stroke:#1f77b4;" x="277.151736" xlink:href="#m6febf9a216" y="139.45741"/>
     <use style="fill:#1f77b4;stroke:#1f77b4;" x="280.431074" xlink:href="#m6febf9a216" y="178.224073"/>
     <use style="fill:#1f77b4;stroke:#1f77b4;" x="283.710413" xlink:href="#m6febf9a216" y="96.184617"/>
     <use style="fill:#1f77b4;stroke:#1f77b4;" x="286.989752" xlink:href="#m6febf9a216" y="106.311798"/>
     <use style="fill:#1f77b4;stroke:#1f77b4;" x="290.269091" xlink:href="#m6febf9a216" y="113.274235"/>
     <use style="fill:#1f77b4;stroke:#1f77b4;" x="293.54843" xlink:href="#m6febf9a216" y="129.196671"/>
     <use style="fill:#1f77b4;stroke:#1f77b4;" x="296.827769" xlink:href="#m6febf9a216" y="134.626095"/>
     <use style="fill:#1f77b4;stroke:#1f77b4;" x="300.107107" xlink:href="#m6febf9a216" y="90.604215"/>
     <use style="fill:#1f77b4;stroke:#1f77b4;" x="303.386446" xlink:href="#m6febf9a216" y="126.508091"/>
     <use style="fill:#1f77b4;stroke:#1f77b4;" x="306.665785" xlink:href="#m6febf9a216" y="118.552679"/>
     <use style="fill:#1f77b4;stroke:#1f77b4;" x="309.945124" xlink:href="#m6febf9a216" y="123.865965"/>
     <use style="fill:#1f77b4;stroke:#1f77b4;" x="313.224463" xlink:href="#m6febf9a216" y="107.345421"/>
     <use style="fill:#1f77b4;stroke:#1f77b4;" x="316.503802" xlink:href="#m6febf9a216" y="104.488441"/>
     <use style="fill:#1f77b4;stroke:#1f77b4;" x="319.78314" xlink:href="#m6febf9a216" y="97.920871"/>
     <use style="fill:#1f77b4;stroke:#1f77b4;" x="323.062479" xlink:href="#m6febf9a216" y="101.857929"/>
     <use style="fill:#1f77b4;stroke:#1f77b4;" x="326.341818" xlink:href="#m6febf9a216" y="172.939821"/>
     <use style="fill:#1f77b4;stroke:#1f77b4;" x="329.621157" xlink:href="#m6febf9a216" y="103.118019"/>
     <use style="fill:#1f77b4;stroke:#1f77b4;" x="332.900496" xlink:href="#m6febf9a216" y="96.55045"/>
     <use style="fill:#1f77b4;stroke:#1f77b4;" x="336.179835" xlink:href="#m6febf9a216" y="110.132718"/>
     <use style="fill:#1f77b4;stroke:#1f77b4;" x="339.459174" xlink:href="#m6febf9a216" y="141.193664"/>
     <use style="fill:#1f77b4;stroke:#1f77b4;" x="342.738512" xlink:href="#m6febf9a216" y="113.959445"/>
     <use style="fill:#1f77b4;stroke:#1f77b4;" x="346.017851" xlink:href="#m6febf9a216" y="94.883878"/>
     <use style="fill:#1f77b4;stroke:#1f77b4;" x="349.29719" xlink:href="#m6febf9a216" y="114.214948"/>
     <use style="fill:#1f77b4;stroke:#1f77b4;" x="352.576529" xlink:href="#m6febf9a216" y="110.138525"/>
     <use style="fill:#1f77b4;stroke:#1f77b4;" x="355.855868" xlink:href="#m6febf9a216" y="113.007119"/>
     <use style="fill:#1f77b4;stroke:#1f77b4;" x="359.135207" xlink:href="#m6febf9a216" y="107.658992"/>
     <use style="fill:#1f77b4;stroke:#1f77b4;" x="362.414545" xlink:href="#m6febf9a216" y="161.761597"/>
     <use style="fill:#1f77b4;stroke:#1f77b4;" x="365.693884" xlink:href="#m6febf9a216" y="136.925615"/>
     <use style="fill:#1f77b4;stroke:#1f77b4;" x="368.973223" xlink:href="#m6febf9a216" y="94.37868"/>
     <use style="fill:#1f77b4;stroke:#1f77b4;" x="372.252562" xlink:href="#m6febf9a216" y="106.613755"/>
     <use style="fill:#1f77b4;stroke:#1f77b4;" x="375.531901" xlink:href="#m6febf9a216" y="98.118305"/>
     <use style="fill:#1f77b4;stroke:#1f77b4;" x="378.81124" xlink:href="#m6febf9a216" y="112.182543"/>
     <use style="fill:#1f77b4;stroke:#1f77b4;" x="382.090579" xlink:href="#m6febf9a216" y="112.368363"/>
     <use style="fill:#1f77b4;stroke:#1f77b4;" x="385.369917" xlink:href="#m6febf9a216" y="107.444137"/>
     <use style="fill:#1f77b4;stroke:#1f77b4;" x="388.649256" xlink:href="#m6febf9a216" y="117.240327"/>
     <use style="fill:#1f77b4;stroke:#1f77b4;" x="391.928595" xlink:href="#m6febf9a216" y="91.486859"/>
     <use style="fill:#1f77b4;stroke:#1f77b4;" x="395.207934" xlink:href="#m6febf9a216" y="101.091422"/>
     <use style="fill:#1f77b4;stroke:#1f77b4;" x="398.487273" xlink:href="#m6febf9a216" y="103.669672"/>
    </g>
   </g>
   <g id="line2d_16">
    <path clip-path="url(#p1de7669af2)" d="M 73.832727 293.972407 
L 77.112066 292.230346 
L 80.391405 292.230346 
L 83.670744 292.230346 
L 86.950083 290.488285 
L 90.229421 288.746224 
L 93.50876 288.746224 
L 96.788099 287.004163 
L 100.067438 281.777981 
L 103.346777 280.03592 
L 106.626116 278.293859 
L 109.905455 274.809737 
L 113.184793 273.067676 
L 116.464132 271.325615 
L 119.743471 271.325615 
L 123.02281 271.325615 
L 126.302149 269.583554 
L 129.581488 269.583554 
L 132.860826 269.583554 
L 136.140165 260.87325 
L 139.419504 257.389128 
L 142.698843 257.389128 
L 145.978182 257.389128 
L 149.257521 257.389128 
L 152.53686 255.647067 
L 155.816198 246.936762 
L 159.095537 241.710579 
L 162.374876 239.968518 
L 165.654215 224.28997 
L 168.933554 222.547909 
L 172.212893 219.063787 
L 175.492231 219.063787 
L 178.77157 219.063787 
L 182.050909 212.095544 
L 185.330248 210.353483 
L 188.609587 206.869361 
L 191.888926 205.1273 
L 195.168264 203.385239 
L 198.447603 203.385239 
L 201.726942 196.416995 
L 205.006281 191.190813 
L 208.28562 185.96463 
L 211.564959 180.738447 
L 214.844298 172.028143 
L 218.123636 168.544021 
L 221.402975 163.317838 
L 224.682314 163.317838 
L 227.961653 161.575777 
L 231.240992 159.833716 
L 234.520331 158.091655 
L 237.799669 154.607533 
L 241.079008 151.123412 
L 244.358347 149.381351 
L 247.637686 149.381351 
L 250.917025 147.63929 
L 254.196364 147.63929 
L 257.475702 145.897229 
L 260.755041 144.155168 
L 264.03438 142.413107 
L 267.313719 140.671046 
L 270.593058 140.671046 
L 273.872397 138.928985 
L 277.151736 137.186924 
L 280.431074 137.186924 
L 283.710413 137.186924 
L 286.989752 135.444863 
L 290.269091 131.960741 
L 293.54843 126.734559 
L 296.827769 121.508376 
L 300.107107 119.766315 
L 303.386446 119.766315 
L 306.665785 116.282193 
L 309.945124 112.798071 
L 313.224463 112.798071 
L 316.503802 111.05601 
L 319.78314 109.313949 
L 323.062479 109.313949 
L 326.341818 107.571889 
L 329.621157 107.571889 
L 332.900496 107.571889 
L 336.179835 105.829828 
L 339.459174 105.829828 
L 342.738512 104.087767 
L 346.017851 102.345706 
L 349.29719 100.603645 
L 352.576529 100.603645 
L 355.855868 98.861584 
L 359.135207 95.377462 
L 362.414545 90.151279 
L 365.693884 86.667157 
L 368.973223 83.183036 
L 372.252562 83.183036 
L 375.531901 77.956853 
L 378.81124 70.988609 
L 382.090579 69.246548 
L 385.369917 67.504487 
L 388.649256 67.504487 
L 391.928595 67.504487 
L 395.207934 58.794183 
L 398.487273 53.568 
" style="fill:none;stroke:#ff7f0e;stroke-linecap:square;stroke-width:1.5;"/>
    <defs>
     <path d="M 0 1.5 
C 0.397805 1.5 0.77937 1.341951 1.06066 1.06066 
C 1.341951 0.77937 1.5 0.397805 1.5 0 
C 1.5 -0.397805 1.341951 -0.77937 1.06066 -1.06066 
C 0.77937 -1.341951 0.397805 -1.5 0 -1.5 
C -0.397805 -1.5 -0.77937 -1.341951 -1.06066 -1.06066 
C -1.341951 -0.77937 -1.5 -0.397805 -1.5 0 
C -1.5 0.397805 -1.341951 0.77937 -1.06066 1.06066 
C -0.77937 1.341951 -0.397805 1.5 0 1.5 
z
" id="m750311d0f9" style="stroke:#ff7f0e;"/>
    </defs>
    <g clip-path="url(#p1de7669af2)">
     <use style="fill:#ff7f0e;stroke:#ff7f0e;" x="73.832727" xlink:href="#m750311d0f9" y="293.972407"/>
     <use style="fill:#ff7f0e;stroke:#ff7f0e;" x="77.112066" xlink:href="#m750311d0f9" y="292.230346"/>
     <use style="fill:#ff7f0e;stroke:#ff7f0e;" x="80.391405" xlink:href="#m750311d0f9" y="292.230346"/>
     <use style="fill:#ff7f0e;stroke:#ff7f0e;" x="83.670744" xlink:href="#m750311d0f9" y="292.230346"/>
     <use style="fill:#ff7f0e;stroke:#ff7f0e;" x="86.950083" xlink:href="#m750311d0f9" y="290.488285"/>
     <use style="fill:#ff7f0e;stroke:#ff7f0e;" x="90.229421" xlink:href="#m750311d0f9" y="288.746224"/>
     <use style="fill:#ff7f0e;stroke:#ff7f0e;" x="93.50876" xlink:href="#m750311d0f9" y="288.746224"/>
     <use style="fill:#ff7f0e;stroke:#ff7f0e;" x="96.788099" xlink:href="#m750311d0f9" y="287.004163"/>
     <use style="fill:#ff7f0e;stroke:#ff7f0e;" x="100.067438" xlink:href="#m750311d0f9" y="281.777981"/>
     <use style="fill:#ff7f0e;stroke:#ff7f0e;" x="103.346777" xlink:href="#m750311d0f9" y="280.03592"/>
     <use style="fill:#ff7f0e;stroke:#ff7f0e;" x="106.626116" xlink:href="#m750311d0f9" y="278.293859"/>
     <use style="fill:#ff7f0e;stroke:#ff7f0e;" x="109.905455" xlink:href="#m750311d0f9" y="274.809737"/>
     <use style="fill:#ff7f0e;stroke:#ff7f0e;" x="113.184793" xlink:href="#m750311d0f9" y="273.067676"/>
     <use style="fill:#ff7f0e;stroke:#ff7f0e;" x="116.464132" xlink:href="#m750311d0f9" y="271.325615"/>
     <use style="fill:#ff7f0e;stroke:#ff7f0e;" x="119.743471" xlink:href="#m750311d0f9" y="271.325615"/>
     <use style="fill:#ff7f0e;stroke:#ff7f0e;" x="123.02281" xlink:href="#m750311d0f9" y="271.325615"/>
     <use style="fill:#ff7f0e;stroke:#ff7f0e;" x="126.302149" xlink:href="#m750311d0f9" y="269.583554"/>
     <use style="fill:#ff7f0e;stroke:#ff7f0e;" x="129.581488" xlink:href="#m750311d0f9" y="269.583554"/>
     <use style="fill:#ff7f0e;stroke:#ff7f0e;" x="132.860826" xlink:href="#m750311d0f9" y="269.583554"/>
     <use style="fill:#ff7f0e;stroke:#ff7f0e;" x="136.140165" xlink:href="#m750311d0f9" y="260.87325"/>
     <use style="fill:#ff7f0e;stroke:#ff7f0e;" x="139.419504" xlink:href="#m750311d0f9" y="257.389128"/>
     <use style="fill:#ff7f0e;stroke:#ff7f0e;" x="142.698843" xlink:href="#m750311d0f9" y="257.389128"/>
     <use style="fill:#ff7f0e;stroke:#ff7f0e;" x="145.978182" xlink:href="#m750311d0f9" y="257.389128"/>
     <use style="fill:#ff7f0e;stroke:#ff7f0e;" x="149.257521" xlink:href="#m750311d0f9" y="257.389128"/>
     <use style="fill:#ff7f0e;stroke:#ff7f0e;" x="152.53686" xlink:href="#m750311d0f9" y="255.647067"/>
     <use style="fill:#ff7f0e;stroke:#ff7f0e;" x="155.816198" xlink:href="#m750311d0f9" y="246.936762"/>
     <use style="fill:#ff7f0e;stroke:#ff7f0e;" x="159.095537" xlink:href="#m750311d0f9" y="241.710579"/>
     <use style="fill:#ff7f0e;stroke:#ff7f0e;" x="162.374876" xlink:href="#m750311d0f9" y="239.968518"/>
     <use style="fill:#ff7f0e;stroke:#ff7f0e;" x="165.654215" xlink:href="#m750311d0f9" y="224.28997"/>
     <use style="fill:#ff7f0e;stroke:#ff7f0e;" x="168.933554" xlink:href="#m750311d0f9" y="222.547909"/>
     <use style="fill:#ff7f0e;stroke:#ff7f0e;" x="172.212893" xlink:href="#m750311d0f9" y="219.063787"/>
     <use style="fill:#ff7f0e;stroke:#ff7f0e;" x="175.492231" xlink:href="#m750311d0f9" y="219.063787"/>
     <use style="fill:#ff7f0e;stroke:#ff7f0e;" x="178.77157" xlink:href="#m750311d0f9" y="219.063787"/>
     <use style="fill:#ff7f0e;stroke:#ff7f0e;" x="182.050909" xlink:href="#m750311d0f9" y="212.095544"/>
     <use style="fill:#ff7f0e;stroke:#ff7f0e;" x="185.330248" xlink:href="#m750311d0f9" y="210.353483"/>
     <use style="fill:#ff7f0e;stroke:#ff7f0e;" x="188.609587" xlink:href="#m750311d0f9" y="206.869361"/>
     <use style="fill:#ff7f0e;stroke:#ff7f0e;" x="191.888926" xlink:href="#m750311d0f9" y="205.1273"/>
     <use style="fill:#ff7f0e;stroke:#ff7f0e;" x="195.168264" xlink:href="#m750311d0f9" y="203.385239"/>
     <use style="fill:#ff7f0e;stroke:#ff7f0e;" x="198.447603" xlink:href="#m750311d0f9" y="203.385239"/>
     <use style="fill:#ff7f0e;stroke:#ff7f0e;" x="201.726942" xlink:href="#m750311d0f9" y="196.416995"/>
     <use style="fill:#ff7f0e;stroke:#ff7f0e;" x="205.006281" xlink:href="#m750311d0f9" y="191.190813"/>
     <use style="fill:#ff7f0e;stroke:#ff7f0e;" x="208.28562" xlink:href="#m750311d0f9" y="185.96463"/>
     <use style="fill:#ff7f0e;stroke:#ff7f0e;" x="211.564959" xlink:href="#m750311d0f9" y="180.738447"/>
     <use style="fill:#ff7f0e;stroke:#ff7f0e;" x="214.844298" xlink:href="#m750311d0f9" y="172.028143"/>
     <use style="fill:#ff7f0e;stroke:#ff7f0e;" x="218.123636" xlink:href="#m750311d0f9" y="168.544021"/>
     <use style="fill:#ff7f0e;stroke:#ff7f0e;" x="221.402975" xlink:href="#m750311d0f9" y="163.317838"/>
     <use style="fill:#ff7f0e;stroke:#ff7f0e;" x="224.682314" xlink:href="#m750311d0f9" y="163.317838"/>
     <use style="fill:#ff7f0e;stroke:#ff7f0e;" x="227.961653" xlink:href="#m750311d0f9" y="161.575777"/>
     <use style="fill:#ff7f0e;stroke:#ff7f0e;" x="231.240992" xlink:href="#m750311d0f9" y="159.833716"/>
     <use style="fill:#ff7f0e;stroke:#ff7f0e;" x="234.520331" xlink:href="#m750311d0f9" y="158.091655"/>
     <use style="fill:#ff7f0e;stroke:#ff7f0e;" x="237.799669" xlink:href="#m750311d0f9" y="154.607533"/>
     <use style="fill:#ff7f0e;stroke:#ff7f0e;" x="241.079008" xlink:href="#m750311d0f9" y="151.123412"/>
     <use style="fill:#ff7f0e;stroke:#ff7f0e;" x="244.358347" xlink:href="#m750311d0f9" y="149.381351"/>
     <use style="fill:#ff7f0e;stroke:#ff7f0e;" x="247.637686" xlink:href="#m750311d0f9" y="149.381351"/>
     <use style="fill:#ff7f0e;stroke:#ff7f0e;" x="250.917025" xlink:href="#m750311d0f9" y="147.63929"/>
     <use style="fill:#ff7f0e;stroke:#ff7f0e;" x="254.196364" xlink:href="#m750311d0f9" y="147.63929"/>
     <use style="fill:#ff7f0e;stroke:#ff7f0e;" x="257.475702" xlink:href="#m750311d0f9" y="145.897229"/>
     <use style="fill:#ff7f0e;stroke:#ff7f0e;" x="260.755041" xlink:href="#m750311d0f9" y="144.155168"/>
     <use style="fill:#ff7f0e;stroke:#ff7f0e;" x="264.03438" xlink:href="#m750311d0f9" y="142.413107"/>
     <use style="fill:#ff7f0e;stroke:#ff7f0e;" x="267.313719" xlink:href="#m750311d0f9" y="140.671046"/>
     <use style="fill:#ff7f0e;stroke:#ff7f0e;" x="270.593058" xlink:href="#m750311d0f9" y="140.671046"/>
     <use style="fill:#ff7f0e;stroke:#ff7f0e;" x="273.872397" xlink:href="#m750311d0f9" y="138.928985"/>
     <use style="fill:#ff7f0e;stroke:#ff7f0e;" x="277.151736" xlink:href="#m750311d0f9" y="137.186924"/>
     <use style="fill:#ff7f0e;stroke:#ff7f0e;" x="280.431074" xlink:href="#m750311d0f9" y="137.186924"/>
     <use style="fill:#ff7f0e;stroke:#ff7f0e;" x="283.710413" xlink:href="#m750311d0f9" y="137.186924"/>
     <use style="fill:#ff7f0e;stroke:#ff7f0e;" x="286.989752" xlink:href="#m750311d0f9" y="135.444863"/>
     <use style="fill:#ff7f0e;stroke:#ff7f0e;" x="290.269091" xlink:href="#m750311d0f9" y="131.960741"/>
     <use style="fill:#ff7f0e;stroke:#ff7f0e;" x="293.54843" xlink:href="#m750311d0f9" y="126.734559"/>
     <use style="fill:#ff7f0e;stroke:#ff7f0e;" x="296.827769" xlink:href="#m750311d0f9" y="121.508376"/>
     <use style="fill:#ff7f0e;stroke:#ff7f0e;" x="300.107107" xlink:href="#m750311d0f9" y="119.766315"/>
     <use style="fill:#ff7f0e;stroke:#ff7f0e;" x="303.386446" xlink:href="#m750311d0f9" y="119.766315"/>
     <use style="fill:#ff7f0e;stroke:#ff7f0e;" x="306.665785" xlink:href="#m750311d0f9" y="116.282193"/>
     <use style="fill:#ff7f0e;stroke:#ff7f0e;" x="309.945124" xlink:href="#m750311d0f9" y="112.798071"/>
     <use style="fill:#ff7f0e;stroke:#ff7f0e;" x="313.224463" xlink:href="#m750311d0f9" y="112.798071"/>
     <use style="fill:#ff7f0e;stroke:#ff7f0e;" x="316.503802" xlink:href="#m750311d0f9" y="111.05601"/>
     <use style="fill:#ff7f0e;stroke:#ff7f0e;" x="319.78314" xlink:href="#m750311d0f9" y="109.313949"/>
     <use style="fill:#ff7f0e;stroke:#ff7f0e;" x="323.062479" xlink:href="#m750311d0f9" y="109.313949"/>
     <use style="fill:#ff7f0e;stroke:#ff7f0e;" x="326.341818" xlink:href="#m750311d0f9" y="107.571889"/>
     <use style="fill:#ff7f0e;stroke:#ff7f0e;" x="329.621157" xlink:href="#m750311d0f9" y="107.571889"/>
     <use style="fill:#ff7f0e;stroke:#ff7f0e;" x="332.900496" xlink:href="#m750311d0f9" y="107.571889"/>
     <use style="fill:#ff7f0e;stroke:#ff7f0e;" x="336.179835" xlink:href="#m750311d0f9" y="105.829828"/>
     <use style="fill:#ff7f0e;stroke:#ff7f0e;" x="339.459174" xlink:href="#m750311d0f9" y="105.829828"/>
     <use style="fill:#ff7f0e;stroke:#ff7f0e;" x="342.738512" xlink:href="#m750311d0f9" y="104.087767"/>
     <use style="fill:#ff7f0e;stroke:#ff7f0e;" x="346.017851" xlink:href="#m750311d0f9" y="102.345706"/>
     <use style="fill:#ff7f0e;stroke:#ff7f0e;" x="349.29719" xlink:href="#m750311d0f9" y="100.603645"/>
     <use style="fill:#ff7f0e;stroke:#ff7f0e;" x="352.576529" xlink:href="#m750311d0f9" y="100.603645"/>
     <use style="fill:#ff7f0e;stroke:#ff7f0e;" x="355.855868" xlink:href="#m750311d0f9" y="98.861584"/>
     <use style="fill:#ff7f0e;stroke:#ff7f0e;" x="359.135207" xlink:href="#m750311d0f9" y="95.377462"/>
     <use style="fill:#ff7f0e;stroke:#ff7f0e;" x="362.414545" xlink:href="#m750311d0f9" y="90.151279"/>
     <use style="fill:#ff7f0e;stroke:#ff7f0e;" x="365.693884" xlink:href="#m750311d0f9" y="86.667157"/>
     <use style="fill:#ff7f0e;stroke:#ff7f0e;" x="368.973223" xlink:href="#m750311d0f9" y="83.183036"/>
     <use style="fill:#ff7f0e;stroke:#ff7f0e;" x="372.252562" xlink:href="#m750311d0f9" y="83.183036"/>
     <use style="fill:#ff7f0e;stroke:#ff7f0e;" x="375.531901" xlink:href="#m750311d0f9" y="77.956853"/>
     <use style="fill:#ff7f0e;stroke:#ff7f0e;" x="378.81124" xlink:href="#m750311d0f9" y="70.988609"/>
     <use style="fill:#ff7f0e;stroke:#ff7f0e;" x="382.090579" xlink:href="#m750311d0f9" y="69.246548"/>
     <use style="fill:#ff7f0e;stroke:#ff7f0e;" x="385.369917" xlink:href="#m750311d0f9" y="67.504487"/>
     <use style="fill:#ff7f0e;stroke:#ff7f0e;" x="388.649256" xlink:href="#m750311d0f9" y="67.504487"/>
     <use style="fill:#ff7f0e;stroke:#ff7f0e;" x="391.928595" xlink:href="#m750311d0f9" y="67.504487"/>
     <use style="fill:#ff7f0e;stroke:#ff7f0e;" x="395.207934" xlink:href="#m750311d0f9" y="58.794183"/>
     <use style="fill:#ff7f0e;stroke:#ff7f0e;" x="398.487273" xlink:href="#m750311d0f9" y="53.568"/>
    </g>
   </g>
   <g id="patch_3">
    <path d="M 57.6 307.584 
L 57.6 41.472 
" style="fill:none;stroke:#000000;stroke-linecap:square;stroke-linejoin:miter;stroke-width:0.8;"/>
   </g>
   <g id="patch_4">
    <path d="M 414.72 307.584 
L 414.72 41.472 
" style="fill:none;stroke:#000000;stroke-linecap:square;stroke-linejoin:miter;stroke-width:0.8;"/>
   </g>
   <g id="patch_5">
    <path d="M 57.6 307.584 
L 414.72 307.584 
" style="fill:none;stroke:#000000;stroke-linecap:square;stroke-linejoin:miter;stroke-width:0.8;"/>
   </g>
   <g id="patch_6">
    <path d="M 57.6 41.472 
L 414.72 41.472 
" style="fill:none;stroke:#000000;stroke-linecap:square;stroke-linejoin:miter;stroke-width:0.8;"/>
   </g>
   <g id="legend_1">
    <g id="patch_7">
     <path d="M 320.668438 79.3845 
L 407.72 79.3845 
Q 409.72 79.3845 409.72 77.3845 
L 409.72 48.472 
Q 409.72 46.472 407.72 46.472 
L 320.668438 46.472 
Q 318.668438 46.472 318.668438 48.472 
L 318.668438 77.3845 
Q 318.668438 79.3845 320.668438 79.3845 
z
" style="fill:#ffffff;opacity:0.8;stroke:#cccccc;stroke-linejoin:miter;"/>
    </g>
    <g id="line2d_17">
     <path d="M 322.668438 54.570438 
L 342.668438 54.570438 
" style="fill:none;stroke:#1f77b4;stroke-linecap:square;stroke-width:1.5;"/>
    </g>
    <g id="line2d_18">
     <g>
      <use style="fill:#1f77b4;stroke:#1f77b4;" x="332.668438" xlink:href="#m6febf9a216" y="54.570438"/>
     </g>
    </g>
    <g id="text_17">
     <!-- pred_value -->
     <g transform="translate(350.668438 58.070438)scale(0.1 -0.1)">
      <defs>
       <path d="M 18.109375 8.203125 
L 18.109375 -20.796875 
L 9.078125 -20.796875 
L 9.078125 54.6875 
L 18.109375 54.6875 
L 18.109375 46.390625 
Q 20.953125 51.265625 25.265625 53.625 
Q 29.59375 56 35.59375 56 
Q 45.5625 56 51.78125 48.09375 
Q 58.015625 40.1875 58.015625 27.296875 
Q 58.015625 14.40625 51.78125 6.484375 
Q 45.5625 -1.421875 35.59375 -1.421875 
Q 29.59375 -1.421875 25.265625 0.953125 
Q 20.953125 3.328125 18.109375 8.203125 
z
M 48.6875 27.296875 
Q 48.6875 37.203125 44.609375 42.84375 
Q 40.53125 48.484375 33.40625 48.484375 
Q 26.265625 48.484375 22.1875 42.84375 
Q 18.109375 37.203125 18.109375 27.296875 
Q 18.109375 17.390625 22.1875 11.75 
Q 26.265625 6.109375 33.40625 6.109375 
Q 40.53125 6.109375 44.609375 11.75 
Q 48.6875 17.390625 48.6875 27.296875 
z
" id="DejaVuSans-112"/>
       <path d="M 45.40625 46.390625 
L 45.40625 75.984375 
L 54.390625 75.984375 
L 54.390625 0 
L 45.40625 0 
L 45.40625 8.203125 
Q 42.578125 3.328125 38.25 0.953125 
Q 33.9375 -1.421875 27.875 -1.421875 
Q 17.96875 -1.421875 11.734375 6.484375 
Q 5.515625 14.40625 5.515625 27.296875 
Q 5.515625 40.1875 11.734375 48.09375 
Q 17.96875 56 27.875 56 
Q 33.9375 56 38.25 53.625 
Q 42.578125 51.265625 45.40625 46.390625 
z
M 14.796875 27.296875 
Q 14.796875 17.390625 18.875 11.75 
Q 22.953125 6.109375 30.078125 6.109375 
Q 37.203125 6.109375 41.296875 11.75 
Q 45.40625 17.390625 45.40625 27.296875 
Q 45.40625 37.203125 41.296875 42.84375 
Q 37.203125 48.484375 30.078125 48.484375 
Q 22.953125 48.484375 18.875 42.84375 
Q 14.796875 37.203125 14.796875 27.296875 
z
" id="DejaVuSans-100"/>
       <path d="M 50.984375 -16.609375 
L 50.984375 -23.578125 
L -0.984375 -23.578125 
L -0.984375 -16.609375 
z
" id="DejaVuSans-95"/>
       <path d="M 2.984375 54.6875 
L 12.5 54.6875 
L 29.59375 8.796875 
L 46.6875 54.6875 
L 56.203125 54.6875 
L 35.6875 0 
L 23.484375 0 
z
" id="DejaVuSans-118"/>
      </defs>
      <use xlink:href="#DejaVuSans-112"/>
      <use x="63.476562" xlink:href="#DejaVuSans-114"/>
      <use x="102.339844" xlink:href="#DejaVuSans-101"/>
      <use x="163.863281" xlink:href="#DejaVuSans-100"/>
      <use x="227.339844" xlink:href="#DejaVuSans-95"/>
      <use x="277.339844" xlink:href="#DejaVuSans-118"/>
      <use x="336.519531" xlink:href="#DejaVuSans-97"/>
      <use x="397.798828" xlink:href="#DejaVuSans-108"/>
      <use x="425.582031" xlink:href="#DejaVuSans-117"/>
      <use x="488.960938" xlink:href="#DejaVuSans-101"/>
     </g>
    </g>
    <g id="line2d_19">
     <path d="M 322.668438 69.526688 
L 342.668438 69.526688 
" style="fill:none;stroke:#ff7f0e;stroke-linecap:square;stroke-width:1.5;"/>
    </g>
    <g id="line2d_20">
     <g>
      <use style="fill:#ff7f0e;stroke:#ff7f0e;" x="332.668438" xlink:href="#m750311d0f9" y="69.526688"/>
     </g>
    </g>
    <g id="text_18">
     <!-- true_value -->
     <g transform="translate(350.668438 73.026688)scale(0.1 -0.1)">
      <use xlink:href="#DejaVuSans-116"/>
      <use x="39.208984" xlink:href="#DejaVuSans-114"/>
      <use x="80.322266" xlink:href="#DejaVuSans-117"/>
      <use x="143.701172" xlink:href="#DejaVuSans-101"/>
      <use x="205.224609" xlink:href="#DejaVuSans-95"/>
      <use x="255.224609" xlink:href="#DejaVuSans-118"/>
      <use x="314.404297" xlink:href="#DejaVuSans-97"/>
      <use x="375.683594" xlink:href="#DejaVuSans-108"/>
      <use x="403.466797" xlink:href="#DejaVuSans-117"/>
      <use x="466.845703" xlink:href="#DejaVuSans-101"/>
     </g>
    </g>
   </g>
  </g>
 </g>
 <defs>
  <clipPath id="p1de7669af2">
   <rect height="266.112" width="357.12" x="57.6" y="41.472"/>
  </clipPath>
 </defs>
</svg>
